<svg id="Layer_1" data-name="Layer 1" xmlns="http://www.w3.org/2000/svg" viewBox="0 0 428.03 464.19"><defs><style>.cls-1{fill:#e0caec;}.cls-2{fill:#009758;}.cls-10,.cls-11,.cls-3{fill:#60b23f;}.cls-4{fill:#5fb43f;}.cls-5{fill:#5b973c;}.cls-6{fill:#441a36;}.cls-7{fill:#fff;}.cls-8{fill:#f2f2f2;}.cls-9{fill:#009042;}.cls-10,.cls-11{stroke:#000;stroke-miterlimit:10;}.cls-10{stroke-width:0.83px;}.cls-11{stroke-width:0.97px;}</style></defs><title>Covid illustrator</title><ellipse class="cls-1" cx="184.21" cy="455.5" rx="130.64" ry="8.69"/><circle class="cls-2" cx="154.64" cy="70.18" r="4.5"/><circle class="cls-2" cx="155.34" cy="70.43" r="4.5"/><path class="cls-3" d="M269.75,109.71a19,19,0,1,0-29.94,7.92l-13,34.72,11.7,4.39,13-34.72A19,19,0,0,0,269.75,109.71Z" transform="translate(-12.56 -15.69)"/><path d="M240.55,161.24l-18.26-6.85,13.43-35.8A22.49,22.49,0,1,1,254,125.44ZM231.3,150.3l5.15,1.93,12.66-33.76,2.49,0a15.55,15.55,0,0,0,14.87-10h0a15.5,15.5,0,1,0-24.42,6.45l1.91,1.59Z" transform="translate(-12.56 -15.69)"/><path class="cls-3" d="M185.88,93.07a19,19,0,1,0-22,21.83L170,151.47l12.33-2.05-6.08-36.57A19,19,0,0,0,185.88,93.07Z" transform="translate(-12.56 -15.69)"/><path d="M167.12,155.5l-6.27-37.72A22.49,22.49,0,0,1,163.45,74a22.49,22.49,0,0,1,16.63,40.58l6.28,37.72Zm0-74.81a16,16,0,0,0-2.57.21,15.49,15.49,0,0,0-.09,30.55l2.45.42,5.92,35.57,5.42-.9L172.38,111l2.19-1.19a15.51,15.51,0,0,0,7.86-16.13h0a15.51,15.51,0,0,0-15.26-13Z" transform="translate(-12.56 -15.69)"/><path class="cls-3" d="M104.93,120.6a19,19,0,1,0-8.11,29.88l23.55,28.63,9.65-7.94-23.55-28.63A19,19,0,0,0,104.93,120.6Z" transform="translate(-12.56 -15.69)"/><path d="M119.89,184,95.6,154.51a22.49,22.49,0,1,1,15.06-12.39L135,171.65Zm-22-37.7,22.91,27.85,4.25-3.5-22.91-27.84,1.29-2.13a15.49,15.49,0,1,0-7.87,6.48Z" transform="translate(-12.56 -15.69)"/><path class="cls-3" d="M60.89,203.14l34.71,13-4.39,11.7-34.71-13a19,19,0,1,1,4.39-11.71Z" transform="translate(-12.56 -15.69)"/><path d="M93.26,232.37l-35.8-13.43a22.5,22.5,0,1,1,6.85-18.25l35.8,13.42ZM55.4,210.7l33.77,12.66,1.93-5.15L57.33,205.55l.06-2.49a15.49,15.49,0,1,0-3.58,9.55Z" transform="translate(-12.56 -15.69)"/><path class="cls-3" d="M31.94,268.78a19,19,0,1,0,21.83,22l36.57-6.09-2-12.33-36.57,6.09A19,19,0,0,0,31.94,268.78Z" transform="translate(-12.56 -15.69)"/><path d="M35,310a22.5,22.5,0,0,1-3.64-44.7h0a22.52,22.52,0,0,1,22.08,9.25l37.72-6.27,3.2,19.23-37.72,6.28A22.53,22.53,0,0,1,35,310Zm0-38a15.42,15.42,0,0,0-2.53.21h0a15.53,15.53,0,0,0-12.75,17.84,15.49,15.49,0,0,0,30.55.08l.42-2.45,35.57-5.91-.9-5.43-35.57,5.92-1.19-2.18A15.53,15.53,0,0,0,35.05,272Z" transform="translate(-12.56 -15.69)"/><path class="cls-3" d="M59.47,349.73a19,19,0,1,0,29.88,8.11L118,334.29,110,324.64,81.41,348.19A19,19,0,0,0,59.47,349.73Z" transform="translate(-12.56 -15.69)"/><path d="M71.56,386.9A22.5,22.5,0,0,1,57.24,347h0A22.53,22.53,0,0,1,81,344l29.53-24.3,12.39,15.06-29.53,24.3A22.48,22.48,0,0,1,71.56,386.9Zm-9.87-34.46a15.5,15.5,0,1,0,24.38,6.61l-.86-2.33,27.85-22.91-3.5-4.25L81.71,352.47l-2.12-1.29a15.5,15.5,0,0,0-17.9,1.26Z" transform="translate(-12.56 -15.69)"/><path class="cls-3" d="M123.78,406.08a19,19,0,1,0,29.94-7.92l13-34.71L155,359.06l-13,34.71A19,19,0,0,0,123.78,406.08Z" transform="translate(-12.56 -15.69)"/><path d="M141.55,435.25a22.5,22.5,0,0,1-21.05-30.4h0a22.52,22.52,0,0,1,19.06-14.49L153,354.55l18.26,6.85-13.43,35.8a22.49,22.49,0,0,1-16.26,38.05Zm-14.49-27.94a15.51,15.51,0,0,0,9.07,19.95,15.49,15.49,0,0,0,20-9.07,15.51,15.51,0,0,0-4.6-17.34l-1.91-1.59,12.66-33.77-5.15-1.93-12.66,33.77-2.49-.06a15.49,15.49,0,0,0-14.87,10Z" transform="translate(-12.56 -15.69)"/><path class="cls-3" d="M207.65,422.72a19,19,0,1,0,22-21.83l-6.09-36.57-12.33,2.05,6.08,36.57A19,19,0,0,0,207.65,422.72Z" transform="translate(-12.56 -15.69)"/><path d="M226.34,442.11a22.51,22.51,0,0,1-22.14-18.82h0a22.49,22.49,0,0,1,9.25-22.07l-6.28-37.72,19.24-3.2L232.68,398a22.49,22.49,0,0,1-2.6,43.78A23.59,23.59,0,0,1,226.34,442.11Zm-11.11-72.86,5.92,35.57L219,406a15.52,15.52,0,0,0-7.86,16.13h0A15.5,15.5,0,1,0,229,404.34l-2.45-.42-5.92-35.57Z" transform="translate(-12.56 -15.69)"/><path class="cls-3" d="M288.6,395.2a19,19,0,1,0,8.11-29.89l-23.55-28.63-9.65,7.94,23.55,28.63A19,19,0,0,0,288.6,395.2Z" transform="translate(-12.56 -15.69)"/><path d="M303.31,405.13c-.72,0-1.44,0-2.17-.11a21.84,21.84,0,0,1-14.85-7.92h0a22,22,0,0,1-2.83-23.5l-24.18-29.39,14.29-11.75,24.18,29.39a22,22,0,1,1,5.56,43.28ZM267.73,345l23,28-1.11,1.82a16,16,0,0,0,1.3,18.48h0a16,16,0,1,0,6.83-25.16l-2,.73-23-28Z" transform="translate(-12.56 -15.69)"/><path class="cls-3" d="M345,330.88A19,19,0,1,0,337,301l-34.71-13-4.39,11.7,34.71,13A19,19,0,0,0,345,330.88Z" transform="translate(-12.56 -15.69)"/><path d="M351.59,335.59a22.4,22.4,0,0,1-7.87-1.43h0a22.52,22.52,0,0,1-14.5-19.05l-35.8-13.43,6.85-18.26,35.8,13.43a22.49,22.49,0,1,1,15.52,38.74Zm-5.41-8a15.5,15.5,0,1,0-6.46-24.42l-1.59,1.91-33.77-12.67-1.93,5.15,33.77,12.67-.06,2.48a15.52,15.52,0,0,0,10,14.88Z" transform="translate(-12.56 -15.69)"/><path class="cls-3" d="M361.59,247a19,19,0,1,0-21.83-22l-36.57,6.08,2.05,12.33,36.57-6.08A19,19,0,0,0,361.59,247Z" transform="translate(-12.56 -15.69)"/><path d="M358.48,250.77a22.56,22.56,0,0,1-18.4-9.56l-37.72,6.28-3.2-19.24L336.88,222a22.5,22.5,0,1,1,25.28,28.48h0A21.85,21.85,0,0,1,358.48,250.77Zm-14.79-17.25,1.19,2.18A15.51,15.51,0,0,0,361,243.56h0a15.5,15.5,0,1,0-17.8-17.92l-.42,2.45L307.22,234l.9,5.42Z" transform="translate(-12.56 -15.69)"/><path class="cls-3" d="M334.06,166.06A19,19,0,1,0,304.18,158L275.55,181.5l7.94,9.66,28.63-23.56A19,19,0,0,0,334.06,166.06Z" transform="translate(-12.56 -15.69)"/><path d="M283,196.08,270.62,181l29.53-24.29a22.5,22.5,0,1,1,36.14,12h0a22.52,22.52,0,0,1-23.75,3ZM280.47,182l3.5,4.25,27.85-22.91,2.12,1.29a15.51,15.51,0,0,0,17.9-1.25h0a15.51,15.51,0,1,0-24.38-6.62l.86,2.33Z" transform="translate(-12.56 -15.69)"/><circle class="cls-4" cx="180.68" cy="240.94" r="121.48"/><path class="cls-5" d="M286.77,174.9s67.22,83.17-.15,161C216.86,416.55,117,356.59,131.77,358.18,100.11,375.15,358.77,369.9,286.77,174.9Z" transform="translate(-12.56 -15.69)"/><path d="M195.86,138.13a120,120,0,1,1-59.24,15.58,119.87,119.87,0,0,1,59.24-15.58h0m0-7a127,127,0,1,0,63.37,17,126.92,126.92,0,0,0-63.37-17Z" transform="translate(-12.56 -15.69)"/><path class="cls-6" d="M119,341.92a533.55,533.55,0,0,1,146,0S198,206.87,119,341.92Z" transform="translate(-12.56 -15.69)"/><path class="cls-7" d="M167.56,296.26c-8.77,9.15-11.81,21.06-16.79,35.73q12.51,8.07,25,0S169.58,309.59,167.56,296.26Z" transform="translate(-12.56 -15.69)"/><path d="M163.29,336.31a23.29,23.29,0,0,1-12.69-4.06l-.2-.13.08-.23c.66-2,1.29-3.87,1.91-5.74,3.92-11.87,7.31-22.13,15-30.1l.43-.45.09.61c2,13.16,8.18,35.47,8.24,35.7l.06.21-.19.13A23.25,23.25,0,0,1,163.29,336.31Zm-12.16-4.45c8.07,5.11,16.25,5.11,24.32,0-.63-2.31-6.12-22.38-8.1-34.93-7.25,7.81-10.56,17.84-14.38,29.42Q152.08,329,151.13,331.86Z" transform="translate(-12.56 -15.69)"/><path class="cls-7" d="M179.2,327.51q-4.37-13.9-8.31-28a21.73,21.73,0,0,1-1.16-7.47,4,4,0,0,1,1.49-3.17,4.83,4.83,0,0,1,1.91-.58c6.84-1.07,13.74-1.68,20.65-2.18" transform="translate(-12.56 -15.69)"/><path class="cls-7" d="M205.33,326.91c-.41-1.86,7.29-17.88,8.34-19.87,2.38-4.5,4.53-9.86,4.84-15-.81-.21-23.59-5.31-21.69-5.31C200.12,286.77,207.31,315.26,205.33,326.91Z" transform="translate(-12.56 -15.69)"/><path class="cls-7" d="M192.56,300.76c6.8,9.94,4.83,21.11,9.83,31.48-1.62.61-21.17,1.8-20.78.15A194.23,194.23,0,0,1,192.56,300.76Z" transform="translate(-12.56 -15.69)"/><path d="M187.81,333.59c-3.18,0-5.77-.19-6.35-.7a.58.58,0,0,1-.2-.58,195.44,195.44,0,0,1,11-31.7l.27-.59.36.53c3.84,5.62,4.93,11.71,6,17.6.83,4.62,1.68,9.4,3.87,13.93l.17.36-.37.14C201.5,333,193.65,333.59,187.81,333.59Zm-5.83-1.2c1.34,1,16.9.18,19.9-.39-2.09-4.5-2.93-9.19-3.74-13.72-1-5.63-2-11.44-5.52-16.78A196.89,196.89,0,0,0,182,332.39Z" transform="translate(-12.56 -15.69)"/><path class="cls-7" d="M218.92,299.89c8,8.31,10.74,19.13,15.26,32.46q-11.37,7.32-22.75,0S217.09,312,218.92,299.89Z" transform="translate(-12.56 -15.69)"/><path d="M222.81,336.28a21.21,21.21,0,0,1-11.53-3.7l-.17-.11.06-.2c.05-.2,5.67-20.47,7.48-32.42l.08-.56.39.4c6.95,7.25,10,16.56,13.59,27.35.56,1.69,1.13,3.43,1.74,5.22l.07.2-.19.12A21.16,21.16,0,0,1,222.81,336.28Zm-11.05-4c7.33,4.64,14.76,4.65,22.09,0-.58-1.71-1.13-3.38-1.67-5-3.47-10.51-6.48-19.63-13.07-26.72C217.32,311.89,212.33,330.12,211.76,332.23Z" transform="translate(-12.56 -15.69)"/><path class="cls-7" d="M139.63,318.68c-5.71,6-7.7,8.69-10.95,18.25,5.44,3.5,9.17,2.29,14.6-1.22A164.25,164.25,0,0,1,139.63,318.68Z" transform="translate(-12.56 -15.69)"/><path d="M134.81,339.22a11.39,11.39,0,0,1-6.23-2.12l-.13-.09.05-.14c3.32-9.8,5.41-12.5,11-18.33l.28-.29.06.4a161.62,161.62,0,0,0,3.65,17l0,.14-.13.08C140.17,338,137.53,339.22,134.81,339.22Zm-5.89-2.37c5.2,3.29,8.73,2.24,14.13-1.22a166,166,0,0,1-3.55-16.52C134.19,324.66,132.13,327.41,128.92,336.85Z" transform="translate(-12.56 -15.69)"/><path class="cls-7" d="M149.37,326.91c.24-.79-5.38-7.36-6-9.21-.81-2.47-1.65-5.88-.55-8,1.59-3,4.71-5.47,7.07-7.9.28-.29,7.74-5.59,6.76-1.66C156.67,300.15,152.66,316.17,149.37,326.91Z" transform="translate(-12.56 -15.69)"/><path d="M149.61,327l-.49-.14c0-.4-1.57-2.56-2.73-4.13a29.61,29.61,0,0,1-3.24-4.94c-1.25-3.81-1.42-6.49-.54-8.19a25.38,25.38,0,0,1,5.19-6.08c.68-.65,1.32-1.26,1.92-1.88.21-.21,5.27-3.9,6.82-3,.45.25.58.79.37,1.62,0,.16-4,16.13-7.3,26.78Zm6.31-28c-1.53,0-5.4,2.62-5.83,3-.61.62-1.26,1.24-1.94,1.89a24.63,24.63,0,0,0-5.08,5.95c-.82,1.57-.64,4.11.56,7.79a31,31,0,0,0,3.17,4.8,40.74,40.74,0,0,1,2.55,3.68c3.21-10.61,7-25.86,7.07-26,.1-.4.15-.89-.12-1A.74.74,0,0,0,155.92,299Z" transform="translate(-12.56 -15.69)"/><path class="cls-7" d="M261.3,339.77c-1.72-5.13-7.06-13.16-12-15.51A2,2,0,0,0,248,324c-.86.24-1,1.37-1,2.26q0,4.38,0,8.76c0,2.53.22,3.67,2.91,3.93C253.72,339.34,257.51,339.57,261.3,339.77Z" transform="translate(-12.56 -15.69)"/><path class="cls-7" d="M225,296.79s16.38,8.84,19.7,18.77c0,0-.35,17.71-3,18.16S225,296.79,225,296.79Z" transform="translate(-12.56 -15.69)"/><path class="cls-8" d="M145.12,190a42.42,42.42,0,1,0,72.31,44.19Z" transform="translate(-12.56 -15.69)"/><path class="cls-6" d="M180.16,260.79A46.89,46.89,0,0,1,133.32,214a46.3,46.3,0,0,1,8.16-26.42,4.43,4.43,0,0,1,6-1.27l72.31,44.19a4.43,4.43,0,0,1,1.58,5.9A46.83,46.83,0,0,1,180.16,260.79Zm-33.57-64.66a38,38,0,0,0,64.74,39.56Z" transform="translate(-12.56 -15.69)"/><path class="cls-6" d="M181.48,238.79a25.38,25.38,0,0,1-21-39.66,4.43,4.43,0,0,1,6-1.27l35.7,21.79a4.43,4.43,0,0,1,1.59,5.87A25.17,25.17,0,0,1,181.48,238.79Zm-15.58-30.9a16.53,16.53,0,0,0,27.61,16.86Z" transform="translate(-12.56 -15.69)"/><path class="cls-7" d="M265.55,211.58a36.72,36.72,0,0,0-3.95-4.94l-29.84,27.73c9.09,13.43,24,19.16,33.26,12.9S274.57,225,265.55,211.58Z" transform="translate(-12.56 -15.69)"/><path class="cls-6" d="M256.26,254.28c-9.79,0-20.66-6.34-28.17-17.43a4.44,4.44,0,0,1,.66-5.73l29.83-27.73a4.43,4.43,0,0,1,6.22.19,40.6,40.6,0,0,1,4.43,5.54c10.36,15.43,9.59,34.2-1.74,41.82A19.83,19.83,0,0,1,256.26,254.28ZM237.7,234.9c7.59,9.07,18.37,13.06,24.85,8.7,7.15-4.82,6.84-18.35-.68-29.55v0c-.22-.32-.44-.65-.67-1Z" transform="translate(-12.56 -15.69)"/><path class="cls-6" d="M164.16,201.63a20.94,20.94,0,1,0,35.69,21.8Z" transform="translate(-12.56 -15.69)"/><path class="cls-6" d="M239.86,243.26a12.67,12.67,0,0,0,6.85-22.79l-15,13.9A39.58,39.58,0,0,0,239.86,243.26Z" transform="translate(-12.56 -15.69)"/><path class="cls-6" d="M239.86,247.68a4.4,4.4,0,0,1-2.76-1,43.31,43.31,0,0,1-9-9.89,4.42,4.42,0,0,1,.67-5.7l14.95-13.89a4.42,4.42,0,0,1,5.66-.31,17.09,17.09,0,0,1-9.24,30.75Zm-2.18-12.77a34,34,0,0,0,3.52,3.67,8.29,8.29,0,0,0,5.23-11.8Z" transform="translate(-12.56 -15.69)"/><circle class="cls-2" cx="248.68" cy="154.94" r="7.5"/><circle class="cls-9" cx="176.68" cy="148.94" r="7.5"/><ellipse class="cls-9" cx="80.68" cy="235.44" rx="2.5" ry="8"/><ellipse class="cls-9" cx="100.68" cy="197.44" rx="4.5" ry="10"/><ellipse class="cls-9" cx="120.18" cy="262.94" rx="3" ry="9.5"/><circle class="cls-9" cx="239.18" cy="248.44" r="5"/><ellipse class="cls-9" cx="200.18" cy="183.94" rx="5" ry="9.5"/><ellipse class="cls-9" cx="161.18" cy="334.94" rx="2" ry="5.5"/><ellipse class="cls-9" cx="243.68" cy="288.44" rx="2.5" ry="8"/><ellipse class="cls-9" cx="287.18" cy="233.94" rx="3" ry="6.5"/><circle class="cls-9" cx="89.18" cy="288.44" r="3"/><circle class="cls-2" cx="351.68" cy="211.94" r="4.5"/><circle class="cls-2" cx="346.68" cy="290.94" r="4.5"/><circle class="cls-2" cx="290.68" cy="372.94" r="4.5"/><circle class="cls-2" cx="213.68" cy="411.94" r="4.5"/><circle class="cls-2" cx="122.68" cy="403.94" r="4.5"/><circle class="cls-2" cx="50.68" cy="346.94" r="4.5"/><circle class="cls-2" cx="14.68" cy="275.94" r="4.5"/><circle class="cls-2" cx="23.68" cy="179.94" r="4.5"/><circle class="cls-2" cx="68.68" cy="116.94" r="4.5"/><circle class="cls-2" cx="317.68" cy="130.94" r="4.5"/><circle class="cls-2" cx="232.68" cy="79.94" r="4.5"/><circle class="cls-2" cx="42.42" cy="412.69" r="0.62"/><circle class="cls-2" cx="42.52" cy="412.72" r="0.62"/><path class="cls-3" d="M69.18,431.68a2.63,2.63,0,1,0-4.15,1.1l-1.8,4.8,1.62.61,1.81-4.81A2.63,2.63,0,0,0,69.18,431.68Z" transform="translate(-12.56 -15.69)"/><path d="M65.14,438.82l-2.53-.95,1.86-5a3.13,3.13,0,0,1-.67-3.25,3.06,3.06,0,0,1,1.63-1.74,3,3,0,0,1,2.38-.08,3.06,3.06,0,0,1,1.74,1.63,3,3,0,0,1,.08,2.38h0a3.11,3.11,0,0,1-2.63,2Zm-1.29-1.52.72.27,1.75-4.68h.35a2.14,2.14,0,0,0,2.06-1.39h0a2.12,2.12,0,0,0-.06-1.64,2.15,2.15,0,0,0-1.2-1.13,2.12,2.12,0,0,0-1.64.06,2.14,2.14,0,0,0-.49,3.6l.27.22Z" transform="translate(-12.56 -15.69)"/><path class="cls-3" d="M57.56,429.37a2.63,2.63,0,0,0-5.19.87,2.65,2.65,0,0,0,2.15,2.16l.84,5.06,1.71-.28-.84-5.07A2.63,2.63,0,0,0,57.56,429.37Z" transform="translate(-12.56 -15.69)"/><path d="M55,438l-.87-5.22a3.12,3.12,0,0,1,.36-6.07A3.11,3.11,0,0,1,58,429.29h0a3.11,3.11,0,0,1-1.28,3.06l.87,5.23Zm0-10.36a2,2,0,0,0-.35,0,2.14,2.14,0,0,0,0,4.23l.34.06.82,4.93.75-.13-.82-4.93.31-.16a2.15,2.15,0,0,0,1.08-2.24h0A2.14,2.14,0,0,0,55,427.66Z" transform="translate(-12.56 -15.69)"/><path class="cls-3" d="M46.35,433.19a2.63,2.63,0,1,0-1.12,4.13l3.26,4,1.34-1.1-3.26-4A2.64,2.64,0,0,0,46.35,433.19Z" transform="translate(-12.56 -15.69)"/><path d="M48.42,442l-3.36-4.09a3.13,3.13,0,0,1-3.15-1,3.12,3.12,0,0,1,4.82-4,3.13,3.13,0,0,1,.41,3.29l3.37,4.09Zm-3-5.22,3.18,3.86.58-.49L46,436.27l.18-.3a2.14,2.14,0,0,0-.17-2.48h0a2.15,2.15,0,0,0-3-.29,2.14,2.14,0,0,0-.78,1.45,2.17,2.17,0,0,0,.48,1.57,2.13,2.13,0,0,0,2.4.65Z" transform="translate(-12.56 -15.69)"/><path class="cls-3" d="M38.55,442.09A2.63,2.63,0,1,0,36.7,447a2.61,2.61,0,0,0,2.94-.78l4.81,1.8.61-1.62-4.81-1.8A2.64,2.64,0,0,0,38.55,442.09Z" transform="translate(-12.56 -15.69)"/><path d="M44.74,448.67l-5-1.86a3.12,3.12,0,1,1-1.06-5.17h0a3.11,3.11,0,0,1,2,2.64l5,1.86Zm-5.25-3,4.68,1.76.27-.71L39.76,445v-.34a2.15,2.15,0,0,0-1.39-2.06h0a2.12,2.12,0,0,0-1.64.05,2.15,2.15,0,0,0,.13,4,2.15,2.15,0,0,0,2.4-.64Z" transform="translate(-12.56 -15.69)"/><path class="cls-3" d="M36.24,453.71a2.63,2.63,0,1,0,3,3l5.06-.84-.28-1.71-5.07.85A2.62,2.62,0,0,0,36.24,453.71Z" transform="translate(-12.56 -15.69)"/><path d="M36.67,459.42a3.12,3.12,0,0,1-1.81-.58,3.12,3.12,0,0,1-.72-4.35,3.12,3.12,0,0,1,2-1.26h0a3.13,3.13,0,0,1,3.06,1.28l5.22-.86.45,2.66-5.23.87a3.11,3.11,0,0,1-2.48,2.2A2.92,2.92,0,0,1,36.67,459.42Zm0-5.26-.35,0h0a2.16,2.16,0,0,0-1.77,2.47,2.18,2.18,0,0,0,.87,1.39,2.1,2.1,0,0,0,1.61.37,2.16,2.16,0,0,0,1.76-1.75l.06-.34,4.92-.82-.12-.75-4.93.82-.16-.3A2.16,2.16,0,0,0,36.67,454.16Z" transform="translate(-12.56 -15.69)"/><path class="cls-3" d="M40.05,464.92A2.64,2.64,0,0,0,43.4,469a2.62,2.62,0,0,0,.79-2.94l4-3.27-1.1-1.33-4,3.26A2.62,2.62,0,0,0,40.05,464.92Z" transform="translate(-12.56 -15.69)"/><path d="M41.73,470.07a3.12,3.12,0,0,1-2.41-1.14,3.11,3.11,0,0,1,3.72-4.8l4.09-3.37,1.71,2.09-4.09,3.37a3.11,3.11,0,0,1-3,3.85Zm0-5.26a2.16,2.16,0,0,0-1.36.49h0a2.15,2.15,0,0,0-.77,1.45,2.13,2.13,0,0,0,.48,1.57,2.15,2.15,0,0,0,3.67-2.11l-.12-.32,3.86-3.17-.49-.59-3.85,3.17-.3-.18A2.13,2.13,0,0,0,41.72,464.81Z" transform="translate(-12.56 -15.69)"/><path class="cls-3" d="M49,472.73a2.63,2.63,0,1,0,4.15-1.1l1.8-4.81-1.62-.61L51.49,471A2.65,2.65,0,0,0,49,472.73Z" transform="translate(-12.56 -15.69)"/><path d="M51.42,476.77a3,3,0,0,1-1.09-.2,3.12,3.12,0,0,1-1.82-4h0a3.12,3.12,0,0,1,2.64-2l1.86-5,2.53,1-1.86,5a3.12,3.12,0,0,1-2.26,5.27Zm-2-3.87a2.13,2.13,0,0,0,1.25,2.76A2.15,2.15,0,0,0,52.8,472l-.27-.22,1.76-4.67-.72-.27-1.75,4.67h-.39a2.13,2.13,0,0,0-2,1.39Z" transform="translate(-12.56 -15.69)"/><path class="cls-3" d="M60.58,475a2.63,2.63,0,1,0,3-3l-.84-5.07-1.71.29.84,5.06A2.64,2.64,0,0,0,60.58,475Z" transform="translate(-12.56 -15.69)"/><path d="M63.17,477.72a3.12,3.12,0,0,1-1.81-.58,3.16,3.16,0,0,1-1.26-2h0a3.12,3.12,0,0,1,1.28-3.06l-.87-5.22,2.67-.44.87,5.22a3.12,3.12,0,0,1-.36,6.07A4.73,4.73,0,0,1,63.17,477.72Zm-1.54-10.09.82,4.92-.3.17A2.13,2.13,0,0,0,61.06,475h0a2.12,2.12,0,0,0,.87,1.4,2.14,2.14,0,0,0,3-.5,2.09,2.09,0,0,0,.37-1.6,2.13,2.13,0,0,0-1.75-1.76l-.34-.06-.82-4.93Z" transform="translate(-12.56 -15.69)"/><path class="cls-3" d="M71.79,471.22a2.63,2.63,0,1,0,1.12-4.14l-3.26-4-1.33,1.1,3.26,4A2.62,2.62,0,0,0,71.79,471.22Z" transform="translate(-12.56 -15.69)"/><path d="M73.83,472.6l-.3,0a3,3,0,0,1-2.06-1.1h0a3,3,0,0,1-.39-3.25l-3.35-4.07,2-1.63,3.35,4.07a3,3,0,1,1,.77,6ZM72.11,471a2.21,2.21,0,0,0,1.5.79,2.17,2.17,0,0,0,1.62-.49,2.21,2.21,0,0,0-2.17-3.79l-.28.1L69.6,463.7l-.7.57,3.19,3.87-.16.26a2.21,2.21,0,0,0,.18,2.56Z" transform="translate(-12.56 -15.69)"/><path class="cls-3" d="M79.6,462.31a2.63,2.63,0,1,0-1.1-4.14l-4.81-1.81L73.08,458l4.81,1.81A2.63,2.63,0,0,0,79.6,462.31Z" transform="translate(-12.56 -15.69)"/><path d="M80.52,463a3.13,3.13,0,0,1-1.09-.19h0a3.12,3.12,0,0,1-2-2.64l-5-1.86,1-2.53,5,1.86A3.11,3.11,0,1,1,80.52,463Zm-.75-1.1a2.15,2.15,0,1,0-.9-3.38l-.22.26L74,457l-.26.71,4.67,1.75v.35a2.13,2.13,0,0,0,1.39,2.06Z" transform="translate(-12.56 -15.69)"/><path class="cls-3" d="M81.9,450.7a2.64,2.64,0,1,0-3-3.05l-5.07.85.29,1.7,5.06-.84A2.64,2.64,0,0,0,81.9,450.7Z" transform="translate(-12.56 -15.69)"/><path d="M81.47,451.22a3.14,3.14,0,0,1-2.55-1.33l-5.22.87-.45-2.66,5.23-.87a3.11,3.11,0,1,1,3.5,3.94h0A2.94,2.94,0,0,1,81.47,451.22Zm-2-2.39.17.3a2.15,2.15,0,0,0,2.23,1.09h0a2.15,2.15,0,1,0-2.47-2.49l0,.34-4.93.82.12.76Z" transform="translate(-12.56 -15.69)"/><path class="cls-3" d="M78.09,439.48A2.63,2.63,0,1,0,74,438.36l-4,3.26,1.1,1.34,4-3.26A2.64,2.64,0,0,0,78.09,439.48Z" transform="translate(-12.56 -15.69)"/><path d="M71,443.64l-1.72-2.08,4.09-3.37a3.14,3.14,0,0,1,1-3.15,3.12,3.12,0,0,1,4.38.43,3.13,3.13,0,0,1-.42,4.39h0a3.15,3.15,0,0,1-3.29.42Zm-.35-1.95.48.59L75,439.1l.29.18a2.14,2.14,0,0,0,2.77-3.19,2.16,2.16,0,0,0-3-.3,2.17,2.17,0,0,0-.65,2.4l.12.33Z" transform="translate(-12.56 -15.69)"/><circle class="cls-4" cx="46.03" cy="436.32" r="16.83"/><path class="cls-5" d="M71.54,440.71s9.31,11.52,0,22.3c-9.67,11.17-23.49,2.86-21.45,3.08C45.68,468.44,81.51,467.72,71.54,440.71Z" transform="translate(-12.56 -15.69)"/><path d="M58.89,435.67h0A16.62,16.62,0,1,1,44.49,444a16.59,16.59,0,0,1,14.4-8.31m0-1a17.59,17.59,0,1,0,8.77,2.36,17.58,17.58,0,0,0-8.77-2.36Z" transform="translate(-12.56 -15.69)"/><path class="cls-6" d="M48.29,463.84a73.69,73.69,0,0,1,20.23,0S59.25,445.14,48.29,463.84Z" transform="translate(-12.56 -15.69)"/><path class="cls-7" d="M55,457.52c-1.22,1.26-1.64,2.91-2.33,5a3,3,0,0,0,3.47,0S55.31,459.36,55,457.52Z" transform="translate(-12.56 -15.69)"/><path d="M54.43,463.07a3.19,3.19,0,0,1-1.75-.57l0,0v0l.27-.79A10.29,10.29,0,0,1,55,457.49l.06-.07v.09c.27,1.82,1.13,4.91,1.14,4.94v0l0,0A3.19,3.19,0,0,1,54.43,463.07Zm-1.68-.62a3,3,0,0,0,3.37,0c-.09-.32-.85-3.1-1.12-4.84a10.49,10.49,0,0,0-2,4.07C52.92,461.93,52.84,462.19,52.75,462.45Z" transform="translate(-12.56 -15.69)"/><path class="cls-7" d="M56.64,461.85c-.41-1.29-.79-2.58-1.15-3.88a2.81,2.81,0,0,1-.16-1,.54.54,0,0,1,.2-.44.65.65,0,0,1,.27-.08c.94-.15,1.9-.23,2.86-.3" transform="translate(-12.56 -15.69)"/><path class="cls-7" d="M60.26,461.76A17.15,17.15,0,0,1,61.41,459a5.31,5.31,0,0,0,.67-2.07c-.11,0-3.26-.74-3-.74C59.54,456.2,60.53,460.15,60.26,461.76Z" transform="translate(-12.56 -15.69)"/><path class="cls-7" d="M58.49,458.14c.94,1.38.67,2.92,1.36,4.36-.22.08-2.93.25-2.88,0A27.63,27.63,0,0,1,58.49,458.14Z" transform="translate(-12.56 -15.69)"/><path d="M57.83,462.69a2.19,2.19,0,0,1-.88-.1.11.11,0,0,1,0-.08,28.09,28.09,0,0,1,1.52-4.39l0-.08.05.07a6,6,0,0,1,.83,2.44,6.89,6.89,0,0,0,.54,1.93l0,0-.05,0A13.71,13.71,0,0,1,57.83,462.69Zm-.81-.17a11.76,11.76,0,0,0,2.76,0,7.59,7.59,0,0,1-.52-1.9,6,6,0,0,0-.76-2.33A28.63,28.63,0,0,0,57,462.52Z" transform="translate(-12.56 -15.69)"/><path class="cls-7" d="M62.14,458c1.1,1.15,1.49,2.65,2.11,4.49a2.69,2.69,0,0,1-3.15,0S61.89,459.7,62.14,458Z" transform="translate(-12.56 -15.69)"/><path d="M62.68,463.06a3,3,0,0,1-1.6-.51l0,0v0s.78-2.83,1-4.49v-.07l.06.05a9.51,9.51,0,0,1,1.88,3.79l.24.72v0l0,0A2.9,2.9,0,0,1,62.68,463.06Zm-1.53-.56a2.68,2.68,0,0,0,3.06,0c-.08-.24-.16-.47-.23-.7a9.63,9.63,0,0,0-1.81-3.7C61.92,459.68,61.23,462.21,61.15,462.5Z" transform="translate(-12.56 -15.69)"/><path class="cls-7" d="M51.16,460.62a5.42,5.42,0,0,0-1.52,2.53,1.6,1.6,0,0,0,2-.17A22.94,22.94,0,0,1,51.16,460.62Z" transform="translate(-12.56 -15.69)"/><path d="M50.49,463.47a1.52,1.52,0,0,1-.86-.3h0v0a5.33,5.33,0,0,1,1.53-2.54l0,0v.06a22.36,22.36,0,0,0,.51,2.35v0h0A2.26,2.26,0,0,1,50.49,463.47Zm-.82-.33c.72.45,1.21.31,2-.17,0-.16-.32-1.2-.49-2.29A5.27,5.27,0,0,0,49.67,463.14Z" transform="translate(-12.56 -15.69)"/><path class="cls-7" d="M52.51,461.76c0-.11-.75-1-.83-1.27a1.66,1.66,0,0,1-.08-1.11,5.37,5.37,0,0,1,1-1.1s1.07-.77.94-.23C53.52,458.06,53,460.27,52.51,461.76Z" transform="translate(-12.56 -15.69)"/><path d="M52.54,461.77l-.07,0a3.78,3.78,0,0,0-.38-.57,3.63,3.63,0,0,1-.44-.68,1.55,1.55,0,0,1-.08-1.14,3.78,3.78,0,0,1,.72-.84l.27-.26s.73-.54.94-.42.08.11,0,.22-.56,2.24-1,3.71Zm.87-3.88a2.22,2.22,0,0,0-.8.42l-.28.27a3.39,3.39,0,0,0-.7.82,1.56,1.56,0,0,0,.08,1.08,4.3,4.3,0,0,0,.44.66,3.93,3.93,0,0,1,.35.51c.45-1.47,1-3.58,1-3.6s0-.13,0-.15Z" transform="translate(-12.56 -15.69)"/><path class="cls-7" d="M68,463.54a4.24,4.24,0,0,0-1.67-2.14.25.25,0,0,0-.17,0c-.12,0-.14.19-.14.32,0,.4,0,.81,0,1.21s0,.51.4.54S67.49,463.52,68,463.54Z" transform="translate(-12.56 -15.69)"/><path class="cls-7" d="M63,457.59s2.27,1.22,2.73,2.6c0,0,0,2.45-.42,2.51S63,457.59,63,457.59Z" transform="translate(-12.56 -15.69)"/><path class="cls-8" d="M51.92,442.8a5.8,5.8,0,0,0-1,3.32,5.87,5.87,0,0,0,11,2.8Z" transform="translate(-12.56 -15.69)"/><path class="cls-6" d="M56.77,452.6a6.49,6.49,0,0,1-6.49-6.48,6.39,6.39,0,0,1,1.13-3.66.62.62,0,0,1,.83-.18l10,6.12a.61.61,0,0,1,.22.82A6.48,6.48,0,0,1,56.77,452.6Zm-4.65-9a5.27,5.27,0,0,0,4.65,7.73,5.28,5.28,0,0,0,4.32-2.25Z" transform="translate(-12.56 -15.69)"/><path class="cls-6" d="M57,449.56a3.52,3.52,0,0,1-2.9-5.5.6.6,0,0,1,.82-.17l5,3a.62.62,0,0,1,.22.81A3.5,3.5,0,0,1,57,449.56Zm-2.15-4.28a2.17,2.17,0,0,0-.13.76,2.29,2.29,0,0,0,3.95,1.57Z" transform="translate(-12.56 -15.69)"/><path class="cls-7" d="M68.6,445.79a5.37,5.37,0,0,0-.55-.69l-4.13,3.84c1.26,1.86,3.32,2.66,4.61,1.79S69.85,447.65,68.6,445.79Z" transform="translate(-12.56 -15.69)"/><path class="cls-6" d="M67.31,451.7a5,5,0,0,1-3.9-2.41.62.62,0,0,1,.09-.8l4.13-3.84a.62.62,0,0,1,.86,0,5.22,5.22,0,0,1,.62.77h0c1.43,2.13,1.33,4.73-.24,5.79A2.79,2.79,0,0,1,67.31,451.7ZM64.74,449c1.05,1.25,2.54,1.81,3.44,1.2s.95-2.54-.09-4.09h0L68,446Z" transform="translate(-12.56 -15.69)"/><path class="cls-6" d="M54.55,444.41a3,3,0,0,0-.5,1.63,2.9,2.9,0,0,0,5.45,1.39Z" transform="translate(-12.56 -15.69)"/><path class="cls-6" d="M65,450.17A1.75,1.75,0,0,0,66,447l-2.07,1.92A5.14,5.14,0,0,0,65,450.17Z" transform="translate(-12.56 -15.69)"/><path class="cls-6" d="M65,450.79a.59.59,0,0,1-.38-.14,5.85,5.85,0,0,1-1.25-1.37.61.61,0,0,1,.09-.79l2.07-1.92a.62.62,0,0,1,.79,0,2.37,2.37,0,0,1-1.28,4.26Zm-.3-1.77a4.7,4.7,0,0,0,.49.51,1.15,1.15,0,0,0,.85-1.11,1.22,1.22,0,0,0-.13-.53Z" transform="translate(-12.56 -15.69)"/><circle class="cls-2" cx="55.45" cy="424.4" r="1.04"/><circle class="cls-9" cx="45.48" cy="423.56" r="1.04"/><ellipse class="cls-9" cx="32.18" cy="435.55" rx="0.35" ry="1.11"/><ellipse class="cls-9" cx="34.95" cy="430.28" rx="0.62" ry="1.39"/><ellipse class="cls-9" cx="37.65" cy="439.35" rx="0.42" ry="1.32"/><circle class="cls-9" cx="54.13" cy="437.35" r="0.69"/><ellipse class="cls-9" cx="48.73" cy="428.41" rx="0.69" ry="1.32"/><ellipse class="cls-9" cx="43.33" cy="449.33" rx="0.28" ry="0.76"/><ellipse class="cls-9" cx="54.76" cy="442.89" rx="0.35" ry="1.11"/><ellipse class="cls-9" cx="60.78" cy="435.34" rx="0.42" ry="0.9"/><circle class="cls-9" cx="33.36" cy="442.89" r="0.42"/><circle class="cls-2" cx="69.73" cy="432.3" r="0.62"/><circle class="cls-2" cx="69.04" cy="443.25" r="0.62"/><circle class="cls-2" cx="61.28" cy="454.61" r="0.62"/><circle class="cls-2" cx="50.62" cy="460.01" r="0.62"/><circle class="cls-2" cx="38.01" cy="458.9" r="0.62"/><circle class="cls-2" cx="28.04" cy="451.01" r="0.62"/><circle class="cls-2" cx="23.05" cy="441.17" r="0.62"/><circle class="cls-2" cx="24.3" cy="427.87" r="0.62"/><circle class="cls-2" cx="30.53" cy="419.14" r="0.62"/><circle class="cls-2" cx="65.02" cy="421.08" r="0.62"/><circle class="cls-2" cx="53.25" cy="414.02" r="0.62"/><path class="cls-3" d="M425.18,270.68a2.63,2.63,0,1,0-4.15,1.1l-1.8,4.8,1.62.61,1.81-4.81A2.63,2.63,0,0,0,425.18,270.68Z" transform="translate(-12.56 -15.69)"/><path d="M421.13,277.82l-2.52-.95,1.86-5a3.11,3.11,0,0,1-.67-3.25,3.06,3.06,0,0,1,1.63-1.74,3,3,0,0,1,2.38-.08,3.06,3.06,0,0,1,1.74,1.63,3,3,0,0,1,.08,2.38,3.11,3.11,0,0,1-2.64,2Zm-1.28-1.52.72.27,1.75-4.68h.35a2.17,2.17,0,0,0,2.06-1.39h0a2.12,2.12,0,0,0-.06-1.64,2.15,2.15,0,0,0-1.2-1.13,2.15,2.15,0,0,0-2.76,1.26,2.14,2.14,0,0,0,.63,2.4l.27.22Z" transform="translate(-12.56 -15.69)"/><path class="cls-3" d="M413.56,268.37a2.63,2.63,0,0,0-5.19.87,2.65,2.65,0,0,0,2.15,2.16l.84,5.06,1.71-.28-.84-5.07A2.63,2.63,0,0,0,413.56,268.37Z" transform="translate(-12.56 -15.69)"/><path d="M411,277l-.86-5.22a3.12,3.12,0,0,1,.36-6.07,3.12,3.12,0,0,1,3.58,2.56h0a3.11,3.11,0,0,1-1.28,3.06l.87,5.23Zm0-10.36-.36,0a2.15,2.15,0,0,0-1.76,2.47,2.15,2.15,0,0,0,1.75,1.76l.34.06.82,4.93.75-.13-.82-4.93.31-.16a2.15,2.15,0,0,0,1.08-2.24h0A2.14,2.14,0,0,0,411,266.66Z" transform="translate(-12.56 -15.69)"/><path class="cls-3" d="M402.35,272.19a2.63,2.63,0,1,0-1.12,4.13l3.26,4,1.34-1.1-3.26-4A2.64,2.64,0,0,0,402.35,272.19Z" transform="translate(-12.56 -15.69)"/><path d="M404.42,281l-3.36-4.09a3.12,3.12,0,0,1-2.72-5.43,3.08,3.08,0,0,1,2.28-.69,3.11,3.11,0,0,1,2.11,1.12h0a3.15,3.15,0,0,1,.42,3.29l3.36,4.09Zm-3-5.22,3.18,3.86.58-.49L402,275.27l.18-.3a2.15,2.15,0,0,0-.17-2.48h0a2.17,2.17,0,0,0-1.45-.77,2.21,2.21,0,0,0-1.58.48,2.15,2.15,0,0,0-.29,3,2.13,2.13,0,0,0,2.4.65Z" transform="translate(-12.56 -15.69)"/><path class="cls-3" d="M394.55,281.09A2.63,2.63,0,0,0,392.7,286a2.61,2.61,0,0,0,2.94-.78l4.81,1.8.61-1.62-4.81-1.8A2.64,2.64,0,0,0,394.55,281.09Z" transform="translate(-12.56 -15.69)"/><path d="M400.73,287.67l-5-1.86a3.12,3.12,0,1,1-1.06-5.17h0a3.14,3.14,0,0,1,2,2.64l4.95,1.86Zm-5.24-3,4.68,1.76.27-.71L395.76,284v-.34a2.15,2.15,0,0,0-1.39-2.06h0a2.15,2.15,0,1,0,.89,3.38Z" transform="translate(-12.56 -15.69)"/><path class="cls-3" d="M392.24,292.71a2.63,2.63,0,1,0,3,3l5.06-.84-.28-1.71-5.07.85A2.62,2.62,0,0,0,392.24,292.71Z" transform="translate(-12.56 -15.69)"/><path d="M392.67,298.42a3.12,3.12,0,0,1-1.81-.58,3.12,3.12,0,0,1-.72-4.35,3.12,3.12,0,0,1,2-1.26h0a3.13,3.13,0,0,1,3.06,1.28l5.23-.86.44,2.66-5.23.87a3.11,3.11,0,0,1-2.48,2.2A2.92,2.92,0,0,1,392.67,298.42Zm-.35-5.23a2.1,2.1,0,0,0-1.39.87,2.07,2.07,0,0,0-.37,1.6,2.1,2.1,0,0,0,.87,1.39,2.07,2.07,0,0,0,1.6.37,2.15,2.15,0,0,0,1.76-1.75l.06-.34,4.92-.82-.12-.75-4.93.82-.16-.3a2.16,2.16,0,0,0-2.24-1.09Z" transform="translate(-12.56 -15.69)"/><path class="cls-3" d="M396.05,303.92A2.64,2.64,0,0,0,399.4,308a2.62,2.62,0,0,0,.79-2.94l4-3.27-1.1-1.33-4,3.26A2.62,2.62,0,0,0,396.05,303.92Z" transform="translate(-12.56 -15.69)"/><path d="M397.73,309.07a3.11,3.11,0,0,1-2-5.52h0a3.11,3.11,0,0,1,3.29-.42l4.09-3.37,1.71,2.09-4.09,3.37a3.11,3.11,0,0,1-3,3.85Zm0-5.26a2.16,2.16,0,0,0-1.36.49h0a2.11,2.11,0,0,0-.77,1.45,2.08,2.08,0,0,0,.48,1.57,2.15,2.15,0,0,0,3.67-2.11l-.12-.32,3.86-3.17-.49-.59-3.85,3.17-.3-.18A2.13,2.13,0,0,0,397.72,303.81Z" transform="translate(-12.56 -15.69)"/><path class="cls-3" d="M405,311.73a2.63,2.63,0,1,0,4.15-1.1l1.8-4.81-1.62-.61-1.8,4.81A2.65,2.65,0,0,0,405,311.73Z" transform="translate(-12.56 -15.69)"/><path d="M407.42,315.77a3,3,0,0,1-1.09-.2,3.12,3.12,0,0,1-1.82-4h0a3.12,3.12,0,0,1,2.64-2l1.86-5,2.53,1-1.86,5a3.11,3.11,0,0,1-2.26,5.27Zm-2-3.87a2.15,2.15,0,0,0,4,1.51,2.16,2.16,0,0,0-.64-2.41l-.27-.22,1.76-4.67-.72-.27-1.75,4.67h-.34A2.16,2.16,0,0,0,405.42,311.9Z" transform="translate(-12.56 -15.69)"/><path class="cls-3" d="M416.58,314a2.63,2.63,0,1,0,3-3l-.84-5.07-1.71.29.84,5.06A2.64,2.64,0,0,0,416.58,314Z" transform="translate(-12.56 -15.69)"/><path d="M419.17,316.72a3.12,3.12,0,0,1-1.81-.58,3.16,3.16,0,0,1-1.26-2,3.12,3.12,0,0,1,1.28-3.06l-.87-5.22,2.67-.44.87,5.22a3.12,3.12,0,0,1-.36,6.07A4.73,4.73,0,0,1,419.17,316.72Zm-1.54-10.09.82,4.92-.3.17a2.13,2.13,0,0,0-1.09,2.23h0a2.12,2.12,0,0,0,.87,1.4,2.14,2.14,0,1,0,1.61-3.86l-.34-.06-.82-4.93Z" transform="translate(-12.56 -15.69)"/><path class="cls-10" d="M427.79,310.22a2.63,2.63,0,1,0,1.12-4.14l-3.26-4-1.33,1.1,3.26,4A2.62,2.62,0,0,0,427.79,310.22Z" transform="translate(-12.56 -15.69)"/><path class="cls-11" d="M435.6,301.31a2.63,2.63,0,1,0-1.1-4.14l-4.81-1.81-.61,1.62,4.81,1.81A2.63,2.63,0,0,0,435.6,301.31Z" transform="translate(-12.56 -15.69)"/><path class="cls-11" d="M437.9,289.7a2.64,2.64,0,1,0-3-3.05l-5.07.85.29,1.7,5.06-.84A2.64,2.64,0,0,0,437.9,289.7Z" transform="translate(-12.56 -15.69)"/><path class="cls-11" d="M434.09,278.48a2.63,2.63,0,1,0-4.14-1.12l-4,3.26,1.1,1.34,4-3.26A2.64,2.64,0,0,0,434.09,278.48Z" transform="translate(-12.56 -15.69)"/><circle class="cls-4" cx="402.03" cy="275.32" r="16.83"/><path class="cls-5" d="M427.54,279.71s9.31,11.52,0,22.3c-9.67,11.17-23.49,2.86-21.45,3.08C401.68,307.44,437.51,306.72,427.54,279.71Z" transform="translate(-12.56 -15.69)"/><path d="M414.89,274.67h0a16.62,16.62,0,1,1-14.4,8.31,16.59,16.59,0,0,1,14.4-8.31m0-1a17.59,17.59,0,1,0,8.77,2.36,17.58,17.58,0,0,0-8.77-2.36Z" transform="translate(-12.56 -15.69)"/><path class="cls-6" d="M404.29,302.84a73.69,73.69,0,0,1,20.23,0S415.25,284.14,404.29,302.84Z" transform="translate(-12.56 -15.69)"/><path class="cls-7" d="M411,296.52c-1.22,1.26-1.64,2.91-2.33,5a3,3,0,0,0,3.47,0S411.31,298.36,411,296.52Z" transform="translate(-12.56 -15.69)"/><path d="M410.43,302.07a3.19,3.19,0,0,1-1.75-.57l0,0v0c.09-.27.18-.53.26-.79a10.43,10.43,0,0,1,2.08-4.17l.06-.07v.09c.27,1.82,1.13,4.91,1.14,4.94v0l0,0A3.19,3.19,0,0,1,410.43,302.07Zm-1.68-.62a3,3,0,0,0,3.37,0c-.09-.32-.85-3.1-1.12-4.84a10.32,10.32,0,0,0-2,4.08C408.92,300.93,408.84,301.19,408.75,301.45Z" transform="translate(-12.56 -15.69)"/><path class="cls-7" d="M412.64,300.85c-.41-1.29-.79-2.58-1.15-3.88a2.81,2.81,0,0,1-.16-1,.54.54,0,0,1,.2-.44.61.61,0,0,1,.27-.08c.94-.15,1.9-.23,2.86-.3" transform="translate(-12.56 -15.69)"/><path class="cls-7" d="M416.26,300.76a17.15,17.15,0,0,1,1.15-2.75,5.31,5.31,0,0,0,.67-2.07c-.11,0-3.26-.74-3-.74C415.54,295.2,416.53,299.15,416.26,300.76Z" transform="translate(-12.56 -15.69)"/><path class="cls-7" d="M414.49,297.14c.94,1.38.67,2.92,1.36,4.36-.22.08-2.93.25-2.88,0A27.63,27.63,0,0,1,414.49,297.14Z" transform="translate(-12.56 -15.69)"/><path d="M413.83,301.69a2.19,2.19,0,0,1-.88-.1.11.11,0,0,1,0-.08,28.09,28.09,0,0,1,1.52-4.39l0-.08,0,.07a6,6,0,0,1,.83,2.44,7.24,7.24,0,0,0,.54,1.93l0,0-.05,0A13.71,13.71,0,0,1,413.83,301.69Zm-.81-.17a11.76,11.76,0,0,0,2.76,0,7.59,7.59,0,0,1-.52-1.9,6,6,0,0,0-.76-2.33A28.63,28.63,0,0,0,413,301.52Z" transform="translate(-12.56 -15.69)"/><path class="cls-7" d="M418.14,297c1.1,1.15,1.49,2.65,2.11,4.49a2.69,2.69,0,0,1-3.15,0S417.89,298.7,418.14,297Z" transform="translate(-12.56 -15.69)"/><path d="M418.68,302.06a2.93,2.93,0,0,1-1.6-.51l0,0v0s.78-2.83,1-4.49v-.07l.06.05a9.51,9.51,0,0,1,1.88,3.79l.24.72v0l0,0A3,3,0,0,1,418.68,302.06Zm-1.53-.56a2.68,2.68,0,0,0,3.06,0c-.08-.24-.16-.47-.23-.7a9.63,9.63,0,0,0-1.81-3.7C417.92,298.68,417.23,301.21,417.15,301.5Z" transform="translate(-12.56 -15.69)"/><path class="cls-7" d="M407.16,299.62a5.42,5.42,0,0,0-1.52,2.53,1.6,1.6,0,0,0,2-.17A22.94,22.94,0,0,1,407.16,299.62Z" transform="translate(-12.56 -15.69)"/><path d="M406.49,302.47a1.52,1.52,0,0,1-.86-.3h0v0a5.32,5.32,0,0,1,1.52-2.54l0,0v.06a20.94,20.94,0,0,0,.5,2.35v0h0A2.26,2.26,0,0,1,406.49,302.47Zm-.82-.33c.73.46,1.22.31,2-.17,0-.16-.32-1.2-.49-2.29A5.27,5.27,0,0,0,405.67,302.14Z" transform="translate(-12.56 -15.69)"/><path class="cls-7" d="M408.51,300.76c0-.11-.75-1-.83-1.27a1.66,1.66,0,0,1-.08-1.11,5.37,5.37,0,0,1,1-1.1s1.07-.77.94-.23C409.52,297.06,409,299.27,408.51,300.76Z" transform="translate(-12.56 -15.69)"/><path d="M408.54,300.77l-.07,0a3.78,3.78,0,0,0-.38-.57,3.63,3.63,0,0,1-.44-.68,1.55,1.55,0,0,1-.08-1.14,3.78,3.78,0,0,1,.72-.84l.27-.26s.73-.54.94-.42.08.11.05.22v.07c-.22.86-.64,2.48-1,3.64Zm-.07,0Zm.94-3.86a2.22,2.22,0,0,0-.8.42l-.27.26a3.45,3.45,0,0,0-.71.83,1.5,1.5,0,0,0,.08,1.08,4.3,4.3,0,0,0,.44.66,5.39,5.39,0,0,1,.35.51c.35-1.15.75-2.7,1-3.54a.35.35,0,0,1,0-.06h0c0-.06,0-.13,0-.15Z" transform="translate(-12.56 -15.69)"/><path class="cls-7" d="M424,302.54a4.24,4.24,0,0,0-1.67-2.14.25.25,0,0,0-.17,0c-.12,0-.14.19-.14.32,0,.4,0,.81,0,1.21s0,.51.4.54S423.49,302.52,424,302.54Z" transform="translate(-12.56 -15.69)"/><path class="cls-7" d="M419,296.59s2.27,1.22,2.73,2.6c0,0,0,2.45-.42,2.51S419,296.59,419,296.59Z" transform="translate(-12.56 -15.69)"/><path class="cls-8" d="M407.92,281.8a5.8,5.8,0,0,0-1,3.32,5.87,5.87,0,0,0,11,2.8Z" transform="translate(-12.56 -15.69)"/><path class="cls-6" d="M412.77,291.6a6.49,6.49,0,0,1-6.49-6.48,6.41,6.41,0,0,1,1.13-3.66.62.62,0,0,1,.83-.18l10,6.12a.61.61,0,0,1,.22.82A6.47,6.47,0,0,1,412.77,291.6Zm-4.65-9a5.27,5.27,0,0,0,4.65,7.73,5.28,5.28,0,0,0,4.32-2.25Z" transform="translate(-12.56 -15.69)"/><path class="cls-6" d="M413,288.56a3.52,3.52,0,0,1-3.51-3.52,3.48,3.48,0,0,1,.61-2,.6.6,0,0,1,.82-.17l4.95,3a.62.62,0,0,1,.22.81A3.5,3.5,0,0,1,413,288.56Zm-2.15-4.28a2.17,2.17,0,0,0-.13.76,2.29,2.29,0,0,0,3.95,1.57Z" transform="translate(-12.56 -15.69)"/><path class="cls-7" d="M424.6,284.79a5.37,5.37,0,0,0-.55-.69l-4.13,3.84c1.26,1.86,3.32,2.66,4.61,1.79S425.85,286.65,424.6,284.79Z" transform="translate(-12.56 -15.69)"/><path class="cls-6" d="M423.31,290.7a5,5,0,0,1-3.9-2.41.62.62,0,0,1,.09-.8l4.13-3.84a.64.64,0,0,1,.87,0,5.17,5.17,0,0,1,.61.77c1.43,2.14,1.33,4.73-.24,5.79A2.79,2.79,0,0,1,423.31,290.7ZM420.74,288c1.05,1.26,2.55,1.81,3.44,1.2s.95-2.54-.09-4.09h0L424,285Z" transform="translate(-12.56 -15.69)"/><path class="cls-6" d="M410.55,283.41a3,3,0,0,0-.5,1.63,2.9,2.9,0,0,0,5.45,1.39Z" transform="translate(-12.56 -15.69)"/><path class="cls-6" d="M421,289.17A1.75,1.75,0,0,0,422,286l-2.07,1.92A5.14,5.14,0,0,0,421,289.17Z" transform="translate(-12.56 -15.69)"/><path class="cls-6" d="M421,289.79a.59.59,0,0,1-.38-.14,5.85,5.85,0,0,1-1.25-1.37.61.61,0,0,1,.09-.79l2.07-1.92a.62.62,0,0,1,.79,0,2.37,2.37,0,0,1-1.28,4.26Zm-.3-1.77a4.7,4.7,0,0,0,.49.51,1.15,1.15,0,0,0,.85-1.11,1.22,1.22,0,0,0-.13-.53Z" transform="translate(-12.56 -15.69)"/><circle class="cls-2" cx="411.45" cy="263.4" r="1.04"/><circle class="cls-9" cx="401.48" cy="262.56" r="1.04"/><ellipse class="cls-9" cx="388.18" cy="274.55" rx="0.35" ry="1.11"/><ellipse class="cls-9" cx="390.95" cy="269.28" rx="0.62" ry="1.39"/><ellipse class="cls-9" cx="393.65" cy="278.35" rx="0.42" ry="1.32"/><circle class="cls-9" cx="410.13" cy="276.35" r="0.69"/><ellipse class="cls-9" cx="404.73" cy="267.41" rx="0.69" ry="1.32"/><ellipse class="cls-9" cx="399.33" cy="288.33" rx="0.28" ry="0.76"/><ellipse class="cls-9" cx="410.76" cy="281.89" rx="0.35" ry="1.11"/><ellipse class="cls-9" cx="416.78" cy="274.34" rx="0.42" ry="0.9"/><circle class="cls-9" cx="389.36" cy="281.89" r="0.42"/><circle class="cls-2" cx="425.73" cy="271.3" r="0.62"/><circle class="cls-2" cx="425.04" cy="282.25" r="0.62"/><circle class="cls-2" cx="417.28" cy="293.61" r="0.62"/><circle class="cls-2" cx="406.62" cy="299.01" r="0.62"/><circle class="cls-2" cx="394.01" cy="297.9" r="0.62"/><circle class="cls-2" cx="384.04" cy="290.01" r="0.62"/><circle class="cls-2" cx="379.05" cy="280.17" r="0.62"/><circle class="cls-2" cx="380.3" cy="266.87" r="0.62"/><circle class="cls-2" cx="386.53" cy="258.14" r="0.62"/><circle class="cls-2" cx="421.02" cy="260.08" r="0.62"/><circle class="cls-2" cx="409.25" cy="253.02" r="0.62"/><path class="cls-3" d="M123.18,20.68a2.63,2.63,0,1,0-4.15,1.1l-1.8,4.8,1.62.61,1.81-4.81A2.63,2.63,0,0,0,123.18,20.68Z" transform="translate(-12.56 -15.69)"/><path d="M119.14,27.82l-2.53-.95,1.86-5a3.13,3.13,0,0,1-.67-3.25,3.06,3.06,0,0,1,1.63-1.74,3,3,0,0,1,2.38-.08,3.11,3.11,0,0,1,1.82,4h0a3.11,3.11,0,0,1-2.63,2Zm-1.29-1.52.72.27,1.75-4.68h.35a2.19,2.19,0,0,0,2.06-1.39h0a2.12,2.12,0,0,0-.06-1.64,2.15,2.15,0,0,0-1.2-1.13,2.12,2.12,0,0,0-1.64.06,2.14,2.14,0,0,0-.49,3.6l.27.22Z" transform="translate(-12.56 -15.69)"/><path class="cls-3" d="M111.56,18.37a2.63,2.63,0,0,0-5.19.87,2.65,2.65,0,0,0,2.15,2.16l.84,5.06,1.71-.28-.84-5.07A2.63,2.63,0,0,0,111.56,18.37Z" transform="translate(-12.56 -15.69)"/><path d="M109,27l-.87-5.22a3.12,3.12,0,0,1,.36-6.07,3.11,3.11,0,0,1,2.3,5.62l.87,5.23Zm0-10.36a2,2,0,0,0-.35,0,2.14,2.14,0,0,0,0,4.23l.34.06.82,4.93.75-.13-.82-4.93.31-.16a2.15,2.15,0,0,0,1.08-2.24h0A2.14,2.14,0,0,0,109,16.66Z" transform="translate(-12.56 -15.69)"/><path class="cls-3" d="M100.35,22.19a2.63,2.63,0,1,0-1.12,4.14l3.26,4,1.34-1.1-3.26-4A2.64,2.64,0,0,0,100.35,22.19Z" transform="translate(-12.56 -15.69)"/><path d="M102.42,31l-3.36-4.09a3.11,3.11,0,0,1-2.72-5.43,3,3,0,0,1,2.28-.69,3.07,3.07,0,0,1,2.11,1.12,3.15,3.15,0,0,1,.42,3.29l3.36,4.09Zm-3-5.22,3.18,3.86.58-.49L100,25.27l.18-.3a2.14,2.14,0,0,0-.17-2.48h0a2.15,2.15,0,0,0-3.32,2.73,2.13,2.13,0,0,0,2.4.65Z" transform="translate(-12.56 -15.69)"/><path class="cls-3" d="M92.55,31.09A2.63,2.63,0,0,0,90.7,36a2.61,2.61,0,0,0,2.94-.78L98.45,37l.61-1.62-4.81-1.8A2.64,2.64,0,0,0,92.55,31.09Z" transform="translate(-12.56 -15.69)"/><path d="M98.74,37.67l-5-1.86a3.11,3.11,0,0,1-5-1,3.1,3.1,0,0,1-.09-2.39,3.13,3.13,0,0,1,4-1.82h0a3.1,3.1,0,0,1,2,2.64l5,1.86Zm-5.25-3,4.68,1.75.27-.71L93.76,34v-.34a2.15,2.15,0,1,0-.5,1.32Z" transform="translate(-12.56 -15.69)"/><path class="cls-3" d="M90.24,42.71a2.63,2.63,0,1,0,3,3l5.06-.84-.28-1.71L93,44.05A2.62,2.62,0,0,0,90.24,42.71Z" transform="translate(-12.56 -15.69)"/><path d="M90.67,48.42a3.12,3.12,0,0,1-3.07-2.6,3.08,3.08,0,0,1,.54-2.33,3.12,3.12,0,0,1,2-1.26h0a3.11,3.11,0,0,1,3.06,1.28l5.23-.87.44,2.67-5.23.87a3.11,3.11,0,0,1-2.48,2.2A2.92,2.92,0,0,1,90.67,48.42Zm0-5.26-.35,0h0a2.1,2.1,0,0,0-1.39.87,2.07,2.07,0,0,0-.37,1.6,2.15,2.15,0,0,0,4.23,0l.06-.34,4.92-.82-.12-.75-4.93.82-.16-.3A2.16,2.16,0,0,0,90.67,43.16Z" transform="translate(-12.56 -15.69)"/><path class="cls-3" d="M94.05,53.92A2.64,2.64,0,1,0,97.4,58a2.62,2.62,0,0,0,.79-2.94l4-3.27-1.1-1.33-4,3.26A2.62,2.62,0,0,0,94.05,53.92Z" transform="translate(-12.56 -15.69)"/><path d="M95.73,59.07h-.31A3.12,3.12,0,1,1,97,53.13l4.09-3.37,1.71,2.09-4.09,3.36a3.11,3.11,0,0,1-3,3.86Zm0-5.26a2.16,2.16,0,0,0-1.36.49h0a2.15,2.15,0,0,0-.77,1.45,2.08,2.08,0,0,0,.48,1.57,2.11,2.11,0,0,0,1.45.77,2.08,2.08,0,0,0,1.57-.48,2.16,2.16,0,0,0,.65-2.4l-.12-.32,3.86-3.17-.49-.59L97.14,54.3l-.3-.18A2.13,2.13,0,0,0,95.72,53.81Z" transform="translate(-12.56 -15.69)"/><path class="cls-3" d="M103,61.73a2.63,2.63,0,1,0,4.15-1.1l1.8-4.81-1.62-.61L105.49,60A2.65,2.65,0,0,0,103,61.73Z" transform="translate(-12.56 -15.69)"/><path d="M105.43,65.77a3.24,3.24,0,0,1-1.1-.2,3.11,3.11,0,0,1-1.82-4h0a3.12,3.12,0,0,1,2.64-2l1.86-5,2.53.95-1.86,5a3.1,3.1,0,0,1,.66,3.25,3.14,3.14,0,0,1-1.62,1.74A3.09,3.09,0,0,1,105.43,65.77Zm-2-3.87a2.08,2.08,0,0,0,0,1.64A2.15,2.15,0,1,0,106.8,61l-.27-.22,1.76-4.67-.71-.27-1.76,4.68h-.34a2.08,2.08,0,0,0-2.06,1.39Z" transform="translate(-12.56 -15.69)"/><path class="cls-3" d="M114.58,64a2.63,2.63,0,1,0,3-3l-.84-5.07-1.71.29.84,5.06A2.64,2.64,0,0,0,114.58,64Z" transform="translate(-12.56 -15.69)"/><path d="M117.17,66.72a3.12,3.12,0,0,1-1.81-.58,3.16,3.16,0,0,1-1.26-2h0a3.12,3.12,0,0,1,1.28-3.06l-.87-5.22,2.67-.44.87,5.22a3.11,3.11,0,0,1,1.66,4.8,3,3,0,0,1-2,1.26A3.15,3.15,0,0,1,117.17,66.72Zm-1.54-10.09.82,4.92-.3.17A2.14,2.14,0,0,0,115.06,64h0a2.12,2.12,0,0,0,.87,1.4,2.14,2.14,0,1,0,1.61-3.86l-.34-.06-.82-4.93Z" transform="translate(-12.56 -15.69)"/><path class="cls-3" d="M125.79,60.22a2.63,2.63,0,1,0,1.12-4.14l-3.26-4-1.33,1.1,3.26,4A2.62,2.62,0,0,0,125.79,60.22Z" transform="translate(-12.56 -15.69)"/><path d="M127.83,61.59a3.05,3.05,0,0,1-2.36-1.11h0a3,3,0,0,1-.39-3.25l-3.35-4.07,2-1.63,3.35,4.07a3,3,0,0,1,3.12,1,3.1,3.1,0,0,1,.68,2.23,3,3,0,0,1-1.1,2.06A3,3,0,0,1,127.83,61.59ZM126.11,60a2.22,2.22,0,1,0,1-3.49l-.28.1L123.6,52.7l-.7.57,3.19,3.87-.16.26a2.21,2.21,0,0,0,.18,2.56Z" transform="translate(-12.56 -15.69)"/><path class="cls-3" d="M133.6,51.31a2.63,2.63,0,1,0-1.1-4.14l-4.81-1.81L127.08,47l4.81,1.81A2.63,2.63,0,0,0,133.6,51.31Z" transform="translate(-12.56 -15.69)"/><path d="M134.52,52a3.17,3.17,0,0,1-1.09-.19h0a3.12,3.12,0,0,1-2-2.64l-5-1.86,1-2.53,5,1.86A3.11,3.11,0,1,1,134.52,52Zm-.75-1.1a2.15,2.15,0,0,0,2.76-1.26,2.15,2.15,0,0,0-3.66-2.13l-.22.27L128,46l-.27.71,4.67,1.75v.35a2.13,2.13,0,0,0,1.39,2.06Z" transform="translate(-12.56 -15.69)"/><path class="cls-3" d="M135.9,39.7a2.64,2.64,0,1,0-3-3.05l-5.07.85.29,1.7,5.06-.84A2.64,2.64,0,0,0,135.9,39.7Z" transform="translate(-12.56 -15.69)"/><path d="M135.47,40.22a3.14,3.14,0,0,1-2.55-1.33l-5.22.87-.45-2.66,5.23-.87a3.11,3.11,0,0,1,4.8-1.67,3.12,3.12,0,0,1-1.3,5.61h0A2.94,2.94,0,0,1,135.47,40.22Zm-2.05-2.39.17.3a2.15,2.15,0,0,0,4-1.38,2.2,2.2,0,0,0-.87-1.4,2.15,2.15,0,0,0-3.37,1.38l-.06.34-4.92.82.12.75Z" transform="translate(-12.56 -15.69)"/><path class="cls-3" d="M132.09,28.48A2.63,2.63,0,1,0,128,27.36l-4,3.26,1.1,1.34,4-3.26A2.64,2.64,0,0,0,132.09,28.48Z" transform="translate(-12.56 -15.69)"/><path d="M125,32.64l-1.72-2.08,4.09-3.37a3.12,3.12,0,1,1,5,1.67h0a3.15,3.15,0,0,1-3.29.42Zm-.35-1.95.48.59L129,28.1l.29.18a2.14,2.14,0,0,0,2.48-.17h0a2.15,2.15,0,0,0-2.73-3.32,2.17,2.17,0,0,0-.65,2.4l.12.32Z" transform="translate(-12.56 -15.69)"/><circle class="cls-4" cx="100.03" cy="25.32" r="16.83"/><path class="cls-5" d="M125.54,29.71s9.31,11.52,0,22.3c-9.67,11.17-23.49,2.86-21.45,3.08C99.68,57.44,135.51,56.72,125.54,29.71Z" transform="translate(-12.56 -15.69)"/><path d="M112.89,24.67h0A16.61,16.61,0,1,1,98.49,33a16.59,16.59,0,0,1,14.4-8.31m0-1a17.59,17.59,0,1,0,8.77,2.36,17.58,17.58,0,0,0-8.77-2.36Z" transform="translate(-12.56 -15.69)"/><path class="cls-6" d="M102.29,52.84a73.69,73.69,0,0,1,20.23,0S113.25,34.14,102.29,52.84Z" transform="translate(-12.56 -15.69)"/><path class="cls-7" d="M109,46.52c-1.22,1.26-1.64,2.91-2.33,4.95a3,3,0,0,0,3.47,0S109.31,48.36,109,46.52Z" transform="translate(-12.56 -15.69)"/><path d="M108.43,52.06a3.17,3.17,0,0,1-1.75-.56l0,0v0c.09-.27.18-.53.26-.79A10.43,10.43,0,0,1,109,46.49l.06-.06v.08c.27,1.82,1.13,4.91,1.14,4.94v0l0,0A3.18,3.18,0,0,1,108.43,52.06Zm-1.68-.61a2.93,2.93,0,0,0,3.37,0c-.09-.32-.85-3.1-1.12-4.84a10.46,10.46,0,0,0-2,4.08C106.92,50.93,106.84,51.19,106.75,51.45Z" transform="translate(-12.56 -15.69)"/><path class="cls-7" d="M110.64,50.85c-.41-1.29-.79-2.58-1.15-3.88a2.81,2.81,0,0,1-.16-1,.54.54,0,0,1,.2-.44.65.65,0,0,1,.27-.08c.94-.15,1.9-.23,2.86-.3" transform="translate(-12.56 -15.69)"/><path class="cls-7" d="M114.26,50.76A17.15,17.15,0,0,1,115.41,48a5.31,5.31,0,0,0,.67-2.07c-.11,0-3.26-.74-3-.74C113.54,45.2,114.53,49.15,114.26,50.76Z" transform="translate(-12.56 -15.69)"/><path class="cls-7" d="M112.49,47.14c.94,1.38.67,2.92,1.36,4.36-.22.08-2.93.25-2.88,0A27.63,27.63,0,0,1,112.49,47.14Z" transform="translate(-12.56 -15.69)"/><path d="M111.83,51.69a2.19,2.19,0,0,1-.88-.1.11.11,0,0,1,0-.08,28.09,28.09,0,0,1,1.52-4.39l0-.08,0,.07a6,6,0,0,1,.83,2.44,7.24,7.24,0,0,0,.54,1.93l0,.05,0,0A13.71,13.71,0,0,1,111.83,51.69Zm-.81-.17a11.76,11.76,0,0,0,2.76-.05,7.48,7.48,0,0,1-.52-1.9,6,6,0,0,0-.76-2.33A28.63,28.63,0,0,0,111,51.52Z" transform="translate(-12.56 -15.69)"/><path class="cls-7" d="M116.14,47c1.1,1.15,1.49,2.65,2.11,4.49a2.69,2.69,0,0,1-3.15,0S115.89,48.7,116.14,47Z" transform="translate(-12.56 -15.69)"/><path d="M116.68,52.06a3,3,0,0,1-1.6-.51l0,0v0s.78-2.84,1-4.5v-.07l.06.05a9.51,9.51,0,0,1,1.88,3.79l.24.72v0l0,0A2.9,2.9,0,0,1,116.68,52.06Zm-1.53-.56a2.68,2.68,0,0,0,3.06,0c-.08-.24-.16-.47-.23-.7a9.71,9.71,0,0,0-1.81-3.7C115.92,48.68,115.23,51.21,115.15,51.5Z" transform="translate(-12.56 -15.69)"/><path class="cls-7" d="M105.16,49.62a5.42,5.42,0,0,0-1.52,2.53,1.6,1.6,0,0,0,2-.17A22.94,22.94,0,0,1,105.16,49.62Z" transform="translate(-12.56 -15.69)"/><path d="M104.49,52.47a1.52,1.52,0,0,1-.86-.3h0v0a5.33,5.33,0,0,1,1.53-2.54l0,0v.06a23.08,23.08,0,0,0,.51,2.35v0h0A2.26,2.26,0,0,1,104.49,52.47Zm-.82-.33c.73.46,1.21.31,2-.17,0-.16-.32-1.2-.49-2.29A5.27,5.27,0,0,0,103.67,52.14Z" transform="translate(-12.56 -15.69)"/><path class="cls-7" d="M106.51,50.76c0-.11-.75-1-.83-1.27a1.66,1.66,0,0,1-.08-1.11,5.37,5.37,0,0,1,1-1.1s1.07-.77.94-.23C107.52,47.06,107,49.27,106.51,50.76Z" transform="translate(-12.56 -15.69)"/><path d="M106.54,50.77l-.07,0a3.47,3.47,0,0,0-.37-.57,3.82,3.82,0,0,1-.45-.68,1.55,1.55,0,0,1-.08-1.14,3.78,3.78,0,0,1,.72-.84l.27-.26s.73-.54.94-.42.08.11,0,.22-.58,2.3-1,3.71Zm.87-3.88a2.22,2.22,0,0,0-.8.42l-.27.26a3.45,3.45,0,0,0-.71.83,1.5,1.5,0,0,0,.08,1.08,3.86,3.86,0,0,0,.44.66,5.39,5.39,0,0,1,.35.51c.45-1.48,1-3.58,1-3.6s0-.13,0-.15Z" transform="translate(-12.56 -15.69)"/><path class="cls-7" d="M122,52.54a4.24,4.24,0,0,0-1.67-2.14.25.25,0,0,0-.17,0c-.12,0-.14.19-.14.32,0,.4,0,.81,0,1.21s0,.51.4.54S121.49,52.52,122,52.54Z" transform="translate(-12.56 -15.69)"/><path class="cls-7" d="M117,46.59s2.27,1.23,2.73,2.6c0,0,0,2.45-.42,2.52S117,46.59,117,46.59Z" transform="translate(-12.56 -15.69)"/><path class="cls-8" d="M105.92,31.8a5.8,5.8,0,0,0-1,3.32,5.87,5.87,0,0,0,11,2.8Z" transform="translate(-12.56 -15.69)"/><path class="cls-6" d="M110.77,41.6a6.49,6.49,0,0,1-6.49-6.48,6.39,6.39,0,0,1,1.13-3.66.62.62,0,0,1,.83-.18l10,6.12a.61.61,0,0,1,.22.82A6.48,6.48,0,0,1,110.77,41.6Zm-4.65-9a5.27,5.27,0,0,0,4.65,7.73,5.28,5.28,0,0,0,4.32-2.25Z" transform="translate(-12.56 -15.69)"/><path class="cls-6" d="M111,38.56A3.52,3.52,0,0,1,107.44,35a3.48,3.48,0,0,1,.61-2,.6.6,0,0,1,.82-.17l4.95,3a.61.61,0,0,1,.22.81A3.5,3.5,0,0,1,111,38.56Zm-2.15-4.28a2.17,2.17,0,0,0-.13.76,2.29,2.29,0,0,0,4,1.57Z" transform="translate(-12.56 -15.69)"/><path class="cls-7" d="M122.6,34.79a5.37,5.37,0,0,0-.55-.69l-4.13,3.84c1.26,1.86,3.32,2.66,4.61,1.79S123.85,36.65,122.6,34.79Z" transform="translate(-12.56 -15.69)"/><path class="cls-6" d="M121.31,40.7a5,5,0,0,1-3.9-2.41.62.62,0,0,1,.09-.8l4.13-3.84a.61.61,0,0,1,.86,0,5.22,5.22,0,0,1,.62.77c1.43,2.13,1.33,4.73-.24,5.79A2.79,2.79,0,0,1,121.31,40.7ZM118.74,38c1.05,1.25,2.55,1.81,3.44,1.2s.95-2.54-.09-4.09h0L122,35Z" transform="translate(-12.56 -15.69)"/><path class="cls-6" d="M108.55,33.41a3,3,0,0,0-.5,1.63,2.9,2.9,0,0,0,5.45,1.39Z" transform="translate(-12.56 -15.69)"/><path class="cls-6" d="M119,39.17A1.75,1.75,0,0,0,120,36l-2.07,1.92A5.14,5.14,0,0,0,119,39.17Z" transform="translate(-12.56 -15.69)"/><path class="cls-6" d="M119,39.79a.59.59,0,0,1-.38-.14,5.85,5.85,0,0,1-1.25-1.37.61.61,0,0,1,.09-.79l2.07-1.92a.62.62,0,0,1,.79,0,2.37,2.37,0,0,1-1.28,4.26Zm-.3-1.77a5.79,5.79,0,0,0,.48.51,1.15,1.15,0,0,0,.86-1.11,1.19,1.19,0,0,0-.13-.53Z" transform="translate(-12.56 -15.69)"/><circle class="cls-2" cx="109.45" cy="13.4" r="1.04"/><circle class="cls-9" cx="99.48" cy="12.56" r="1.04"/><ellipse class="cls-9" cx="86.18" cy="24.55" rx="0.35" ry="1.11"/><ellipse class="cls-9" cx="88.95" cy="19.28" rx="0.62" ry="1.39"/><ellipse class="cls-9" cx="91.65" cy="28.35" rx="0.42" ry="1.32"/><circle class="cls-9" cx="108.13" cy="26.35" r="0.69"/><ellipse class="cls-9" cx="102.73" cy="17.41" rx="0.69" ry="1.32"/><ellipse class="cls-9" cx="97.33" cy="38.33" rx="0.28" ry="0.76"/><ellipse class="cls-9" cx="108.76" cy="31.89" rx="0.35" ry="1.11"/><ellipse class="cls-9" cx="114.78" cy="24.34" rx="0.42" ry="0.9"/><circle class="cls-9" cx="87.36" cy="31.89" r="0.42"/><circle class="cls-2" cx="123.73" cy="21.3" r="0.62"/><circle class="cls-2" cx="123.04" cy="32.25" r="0.62"/><circle class="cls-2" cx="115.28" cy="43.61" r="0.62"/><circle class="cls-2" cx="104.62" cy="49.01" r="0.62"/><circle class="cls-2" cx="92.01" cy="47.9" r="0.62"/><circle class="cls-2" cx="82.04" cy="40.01" r="0.62"/><circle class="cls-2" cx="77.05" cy="30.17" r="0.62"/><circle class="cls-2" cx="78.3" cy="16.87" r="0.62"/><circle class="cls-2" cx="84.53" cy="8.14" r="0.62"/><circle class="cls-2" cx="119.02" cy="10.08" r="0.62"/><circle class="cls-2" cx="107.25" cy="3.02" r="0.62"/><ellipse class="cls-1" cx="184.21" cy="455.5" rx="130.64" ry="8.69"/><circle class="cls-2" cx="154.64" cy="70.18" r="4.5"/><circle class="cls-2" cx="155.34" cy="70.43" r="4.5"/><path class="cls-3" d="M269.75,109.71a19,19,0,1,0-29.94,7.92l-13,34.72,11.7,4.39,13-34.72A19,19,0,0,0,269.75,109.71Z" transform="translate(-12.56 -15.69)"/><path d="M240.55,161.24l-18.26-6.85,13.43-35.8A22.49,22.49,0,1,1,254,125.44ZM231.3,150.3l5.15,1.93,12.66-33.76,2.49,0a15.55,15.55,0,0,0,14.87-10h0a15.5,15.5,0,1,0-24.42,6.45l1.91,1.59Z" transform="translate(-12.56 -15.69)"/><path class="cls-3" d="M185.88,93.07a19,19,0,1,0-22,21.83L170,151.47l12.33-2.05-6.08-36.57A19,19,0,0,0,185.88,93.07Z" transform="translate(-12.56 -15.69)"/><path d="M167.12,155.5l-6.27-37.72A22.49,22.49,0,0,1,163.45,74a22.49,22.49,0,0,1,16.63,40.58l6.28,37.72Zm0-74.81a16,16,0,0,0-2.57.21,15.49,15.49,0,0,0-.09,30.55l2.45.42,5.92,35.57,5.42-.9L172.38,111l2.19-1.19a15.51,15.51,0,0,0,7.86-16.13h0a15.51,15.51,0,0,0-15.26-13Z" transform="translate(-12.56 -15.69)"/><path class="cls-3" d="M104.93,120.6a19,19,0,1,0-8.11,29.88l23.55,28.63,9.65-7.94-23.55-28.63A19,19,0,0,0,104.93,120.6Z" transform="translate(-12.56 -15.69)"/><path d="M119.89,184,95.6,154.51a22.49,22.49,0,1,1,15.06-12.39L135,171.65Zm-22-37.7,22.91,27.85,4.25-3.5-22.91-27.84,1.29-2.13a15.49,15.49,0,1,0-7.87,6.48Z" transform="translate(-12.56 -15.69)"/><path class="cls-3" d="M60.89,203.14l34.71,13-4.39,11.7-34.71-13a19,19,0,1,1,4.39-11.71Z" transform="translate(-12.56 -15.69)"/><path d="M93.26,232.37l-35.8-13.43a22.5,22.5,0,1,1,6.85-18.25l35.8,13.42ZM55.4,210.7l33.77,12.66,1.93-5.15L57.33,205.55l.06-2.49a15.49,15.49,0,1,0-3.58,9.55Z" transform="translate(-12.56 -15.69)"/><path class="cls-3" d="M31.94,268.78a19,19,0,1,0,21.83,22l36.57-6.09-2-12.33-36.57,6.09A19,19,0,0,0,31.94,268.78Z" transform="translate(-12.56 -15.69)"/><path d="M35,310a22.5,22.5,0,0,1-3.64-44.7h0a22.52,22.52,0,0,1,22.08,9.25l37.72-6.27,3.2,19.23-37.72,6.28A22.53,22.53,0,0,1,35,310Zm0-38a15.42,15.42,0,0,0-2.53.21h0a15.53,15.53,0,0,0-12.75,17.84,15.49,15.49,0,0,0,30.55.08l.42-2.45,35.57-5.91-.9-5.43-35.57,5.92-1.19-2.18A15.53,15.53,0,0,0,35.05,272Z" transform="translate(-12.56 -15.69)"/><path class="cls-3" d="M59.47,349.73a19,19,0,1,0,29.88,8.11L118,334.29,110,324.64,81.41,348.19A19,19,0,0,0,59.47,349.73Z" transform="translate(-12.56 -15.69)"/><path d="M71.56,386.9A22.5,22.5,0,0,1,57.24,347h0A22.53,22.53,0,0,1,81,344l29.53-24.3,12.39,15.06-29.53,24.3A22.48,22.48,0,0,1,71.56,386.9Zm-9.87-34.46a15.5,15.5,0,1,0,24.38,6.61l-.86-2.33,27.85-22.91-3.5-4.25L81.71,352.47l-2.12-1.29a15.5,15.5,0,0,0-17.9,1.26Z" transform="translate(-12.56 -15.69)"/><path class="cls-3" d="M123.78,406.08a19,19,0,1,0,29.94-7.92l13-34.71L155,359.06l-13,34.71A19,19,0,0,0,123.78,406.08Z" transform="translate(-12.56 -15.69)"/><path d="M141.55,435.25a22.5,22.5,0,0,1-21.05-30.4h0a22.52,22.52,0,0,1,19.06-14.49L153,354.55l18.26,6.85-13.43,35.8a22.49,22.49,0,0,1-16.26,38.05Zm-14.49-27.94a15.51,15.51,0,0,0,9.07,19.95,15.49,15.49,0,0,0,20-9.07,15.51,15.51,0,0,0-4.6-17.34l-1.91-1.59,12.66-33.77-5.15-1.93-12.66,33.77-2.49-.06a15.49,15.49,0,0,0-14.87,10Z" transform="translate(-12.56 -15.69)"/><path class="cls-3" d="M207.65,422.72a19,19,0,1,0,22-21.83l-6.09-36.57-12.33,2.05,6.08,36.57A19,19,0,0,0,207.65,422.72Z" transform="translate(-12.56 -15.69)"/><path d="M226.34,442.11a22.51,22.51,0,0,1-22.14-18.82h0a22.49,22.49,0,0,1,9.25-22.07l-6.28-37.72,19.24-3.2L232.68,398a22.49,22.49,0,0,1-2.6,43.78A23.59,23.59,0,0,1,226.34,442.11Zm-11.11-72.86,5.92,35.57L219,406a15.52,15.52,0,0,0-7.86,16.13h0A15.5,15.5,0,1,0,229,404.34l-2.45-.42-5.92-35.57Z" transform="translate(-12.56 -15.69)"/><path class="cls-3" d="M288.6,395.2a19,19,0,1,0,8.11-29.89l-23.55-28.63-9.65,7.94,23.55,28.63A19,19,0,0,0,288.6,395.2Z" transform="translate(-12.56 -15.69)"/><path d="M303.31,405.13c-.72,0-1.44,0-2.17-.11a21.84,21.84,0,0,1-14.85-7.92h0a22,22,0,0,1-2.83-23.5l-24.18-29.39,14.29-11.75,24.18,29.39a22,22,0,1,1,5.56,43.28ZM267.73,345l23,28-1.11,1.82a16,16,0,0,0,1.3,18.48h0a16,16,0,1,0,6.83-25.16l-2,.73-23-28Z" transform="translate(-12.56 -15.69)"/><path class="cls-3" d="M345,330.88A19,19,0,1,0,337,301l-34.71-13-4.39,11.7,34.71,13A19,19,0,0,0,345,330.88Z" transform="translate(-12.56 -15.69)"/><path d="M351.59,335.59a22.4,22.4,0,0,1-7.87-1.43h0a22.52,22.52,0,0,1-14.5-19.05l-35.8-13.43,6.85-18.26,35.8,13.43a22.49,22.49,0,1,1,15.52,38.74Zm-5.41-8a15.5,15.5,0,1,0-6.46-24.42l-1.59,1.91-33.77-12.67-1.93,5.15,33.77,12.67-.06,2.48a15.52,15.52,0,0,0,10,14.88Z" transform="translate(-12.56 -15.69)"/><path class="cls-3" d="M361.59,247a19,19,0,1,0-21.83-22l-36.57,6.08,2.05,12.33,36.57-6.08A19,19,0,0,0,361.59,247Z" transform="translate(-12.56 -15.69)"/><path d="M358.48,250.77a22.56,22.56,0,0,1-18.4-9.56l-37.72,6.28-3.2-19.24L336.88,222a22.5,22.5,0,1,1,25.28,28.48h0A21.85,21.85,0,0,1,358.48,250.77Zm-14.79-17.25,1.19,2.18A15.51,15.51,0,0,0,361,243.56h0a15.5,15.5,0,1,0-17.8-17.92l-.42,2.45L307.22,234l.9,5.42Z" transform="translate(-12.56 -15.69)"/><path class="cls-3" d="M334.06,166.06A19,19,0,1,0,304.18,158L275.55,181.5l7.94,9.66,28.63-23.56A19,19,0,0,0,334.06,166.06Z" transform="translate(-12.56 -15.69)"/><path d="M283,196.08,270.62,181l29.53-24.29a22.5,22.5,0,1,1,36.14,12h0a22.52,22.52,0,0,1-23.75,3ZM280.47,182l3.5,4.25,27.85-22.91,2.12,1.29a15.51,15.51,0,0,0,17.9-1.25h0a15.51,15.51,0,1,0-24.38-6.62l.86,2.33Z" transform="translate(-12.56 -15.69)"/><circle class="cls-4" cx="180.68" cy="240.94" r="121.48"/><path class="cls-5" d="M286.77,174.9s67.22,83.17-.15,161C216.86,416.55,117,356.59,131.77,358.18,100.11,375.15,358.77,369.9,286.77,174.9Z" transform="translate(-12.56 -15.69)"/><path d="M195.86,138.13a120,120,0,1,1-59.24,15.58,119.87,119.87,0,0,1,59.24-15.58h0m0-7a127,127,0,1,0,63.37,17,126.92,126.92,0,0,0-63.37-17Z" transform="translate(-12.56 -15.69)"/><path class="cls-6" d="M119,341.92a533.55,533.55,0,0,1,146,0S198,206.87,119,341.92Z" transform="translate(-12.56 -15.69)"/><path class="cls-7" d="M167.56,296.26c-8.77,9.15-11.81,21.06-16.79,35.73q12.51,8.07,25,0S169.58,309.59,167.56,296.26Z" transform="translate(-12.56 -15.69)"/><path d="M163.29,336.31a23.29,23.29,0,0,1-12.69-4.06l-.2-.13.08-.23c.66-2,1.29-3.87,1.91-5.74,3.92-11.87,7.31-22.13,15-30.1l.43-.45.09.61c2,13.16,8.18,35.47,8.24,35.7l.06.21-.19.13A23.25,23.25,0,0,1,163.29,336.31Zm-12.16-4.45c8.07,5.11,16.25,5.11,24.32,0-.63-2.31-6.12-22.38-8.1-34.93-7.25,7.81-10.56,17.84-14.38,29.42Q152.08,329,151.13,331.86Z" transform="translate(-12.56 -15.69)"/><path class="cls-7" d="M179.2,327.51q-4.37-13.9-8.31-28a21.73,21.73,0,0,1-1.16-7.47,4,4,0,0,1,1.49-3.17,4.83,4.83,0,0,1,1.91-.58c6.84-1.07,13.74-1.68,20.65-2.18" transform="translate(-12.56 -15.69)"/><path class="cls-7" d="M205.33,326.91c-.41-1.86,7.29-17.88,8.34-19.87,2.38-4.5,4.53-9.86,4.84-15-.81-.21-23.59-5.31-21.69-5.31C200.12,286.77,207.31,315.26,205.33,326.91Z" transform="translate(-12.56 -15.69)"/><path class="cls-7" d="M192.56,300.76c6.8,9.94,4.83,21.11,9.83,31.48-1.62.61-21.17,1.8-20.78.15A194.23,194.23,0,0,1,192.56,300.76Z" transform="translate(-12.56 -15.69)"/><path d="M187.81,333.59c-3.18,0-5.77-.19-6.35-.7a.58.58,0,0,1-.2-.58,195.44,195.44,0,0,1,11-31.7l.27-.59.36.53c3.84,5.62,4.93,11.71,6,17.6.83,4.62,1.68,9.4,3.87,13.93l.17.36-.37.14C201.5,333,193.65,333.59,187.81,333.59Zm-5.83-1.2c1.34,1,16.9.18,19.9-.39-2.09-4.5-2.93-9.19-3.74-13.72-1-5.63-2-11.44-5.52-16.78A196.89,196.89,0,0,0,182,332.39Z" transform="translate(-12.56 -15.69)"/><path class="cls-7" d="M218.92,299.89c8,8.31,10.74,19.13,15.26,32.46q-11.37,7.32-22.75,0S217.09,312,218.92,299.89Z" transform="translate(-12.56 -15.69)"/><path d="M222.81,336.28a21.21,21.21,0,0,1-11.53-3.7l-.17-.11.06-.2c.05-.2,5.67-20.47,7.48-32.42l.08-.56.39.4c6.95,7.25,10,16.56,13.59,27.35.56,1.69,1.13,3.43,1.74,5.22l.07.2-.19.12A21.16,21.16,0,0,1,222.81,336.28Zm-11.05-4c7.33,4.64,14.76,4.65,22.09,0-.58-1.71-1.13-3.38-1.67-5-3.47-10.51-6.48-19.63-13.07-26.72C217.32,311.89,212.33,330.12,211.76,332.23Z" transform="translate(-12.56 -15.69)"/><path class="cls-7" d="M139.63,318.68c-5.71,6-7.7,8.69-10.95,18.25,5.44,3.5,9.17,2.29,14.6-1.22A164.25,164.25,0,0,1,139.63,318.68Z" transform="translate(-12.56 -15.69)"/><path d="M134.81,339.22a11.39,11.39,0,0,1-6.23-2.12l-.13-.09.05-.14c3.32-9.8,5.41-12.5,11-18.33l.28-.29.06.4a161.62,161.62,0,0,0,3.65,17l0,.14-.13.08C140.17,338,137.53,339.22,134.81,339.22Zm-5.89-2.37c5.2,3.29,8.73,2.24,14.13-1.22a166,166,0,0,1-3.55-16.52C134.19,324.66,132.13,327.41,128.92,336.85Z" transform="translate(-12.56 -15.69)"/><path class="cls-7" d="M149.37,326.91c.24-.79-5.38-7.36-6-9.21-.81-2.47-1.65-5.88-.55-8,1.59-3,4.71-5.47,7.07-7.9.28-.29,7.74-5.59,6.76-1.66C156.67,300.15,152.66,316.17,149.37,326.91Z" transform="translate(-12.56 -15.69)"/><path d="M149.61,327l-.49-.14c0-.4-1.57-2.56-2.73-4.13a29.61,29.61,0,0,1-3.24-4.94c-1.25-3.81-1.42-6.49-.54-8.19a25.38,25.38,0,0,1,5.19-6.08c.68-.65,1.32-1.26,1.92-1.88.21-.21,5.27-3.9,6.82-3,.45.25.58.79.37,1.62,0,.16-4,16.13-7.3,26.78Zm6.31-28c-1.53,0-5.4,2.62-5.83,3-.61.62-1.26,1.24-1.94,1.89a24.63,24.63,0,0,0-5.08,5.95c-.82,1.57-.64,4.11.56,7.79a31,31,0,0,0,3.17,4.8,40.74,40.74,0,0,1,2.55,3.68c3.21-10.61,7-25.86,7.07-26,.1-.4.15-.89-.12-1A.74.74,0,0,0,155.92,299Z" transform="translate(-12.56 -15.69)"/><path class="cls-7" d="M261.3,339.77c-1.72-5.13-7.06-13.16-12-15.51A2,2,0,0,0,248,324c-.86.24-1,1.37-1,2.26q0,4.38,0,8.76c0,2.53.22,3.67,2.91,3.93C253.72,339.34,257.51,339.57,261.3,339.77Z" transform="translate(-12.56 -15.69)"/><path class="cls-7" d="M225,296.79s16.38,8.84,19.7,18.77c0,0-.35,17.71-3,18.16S225,296.79,225,296.79Z" transform="translate(-12.56 -15.69)"/><path class="cls-8" d="M145.12,190a42.42,42.42,0,1,0,72.31,44.19Z" transform="translate(-12.56 -15.69)"/><path class="cls-6" d="M180.16,260.79A46.89,46.89,0,0,1,133.32,214a46.3,46.3,0,0,1,8.16-26.42,4.43,4.43,0,0,1,6-1.27l72.31,44.19a4.43,4.43,0,0,1,1.58,5.9A46.83,46.83,0,0,1,180.16,260.79Zm-33.57-64.66a38,38,0,0,0,64.74,39.56Z" transform="translate(-12.56 -15.69)"/><path class="cls-6" d="M181.48,238.79a25.38,25.38,0,0,1-21-39.66,4.43,4.43,0,0,1,6-1.27l35.7,21.79a4.43,4.43,0,0,1,1.59,5.87A25.17,25.17,0,0,1,181.48,238.79Zm-15.58-30.9a16.53,16.53,0,0,0,27.61,16.86Z" transform="translate(-12.56 -15.69)"/><path class="cls-7" d="M265.55,211.58a36.72,36.72,0,0,0-3.95-4.94l-29.84,27.73c9.09,13.43,24,19.16,33.26,12.9S274.57,225,265.55,211.58Z" transform="translate(-12.56 -15.69)"/><path class="cls-6" d="M256.26,254.28c-9.79,0-20.66-6.34-28.17-17.43a4.44,4.44,0,0,1,.66-5.73l29.83-27.73a4.43,4.43,0,0,1,6.22.19,40.6,40.6,0,0,1,4.43,5.54c10.36,15.43,9.59,34.2-1.74,41.82A19.83,19.83,0,0,1,256.26,254.28ZM237.7,234.9c7.59,9.07,18.37,13.06,24.85,8.7,7.15-4.82,6.84-18.35-.68-29.55v0c-.22-.32-.44-.65-.67-1Z" transform="translate(-12.56 -15.69)"/><path class="cls-6" d="M164.16,201.63a20.94,20.94,0,1,0,35.69,21.8Z" transform="translate(-12.56 -15.69)"/><path class="cls-6" d="M239.86,243.26a12.67,12.67,0,0,0,6.85-22.79l-15,13.9A39.58,39.58,0,0,0,239.86,243.26Z" transform="translate(-12.56 -15.69)"/><path class="cls-6" d="M239.86,247.68a4.4,4.4,0,0,1-2.76-1,43.31,43.31,0,0,1-9-9.89,4.42,4.42,0,0,1,.67-5.7l14.95-13.89a4.42,4.42,0,0,1,5.66-.31,17.09,17.09,0,0,1-9.24,30.75Zm-2.18-12.77a34,34,0,0,0,3.52,3.67,8.29,8.29,0,0,0,5.23-11.8Z" transform="translate(-12.56 -15.69)"/><circle class="cls-2" cx="248.68" cy="154.94" r="7.5"/><circle class="cls-9" cx="176.68" cy="148.94" r="7.5"/><ellipse class="cls-9" cx="80.68" cy="235.44" rx="2.5" ry="8"/><ellipse class="cls-9" cx="100.68" cy="197.44" rx="4.5" ry="10"/><ellipse class="cls-9" cx="120.18" cy="262.94" rx="3" ry="9.5"/><circle class="cls-9" cx="239.18" cy="248.44" r="5"/><ellipse class="cls-9" cx="200.18" cy="183.94" rx="5" ry="9.5"/><ellipse class="cls-9" cx="161.18" cy="334.94" rx="2" ry="5.5"/><ellipse class="cls-9" cx="243.68" cy="288.44" rx="2.5" ry="8"/><ellipse class="cls-9" cx="287.18" cy="233.94" rx="3" ry="6.5"/><circle class="cls-9" cx="89.18" cy="288.44" r="3"/><circle class="cls-2" cx="351.68" cy="211.94" r="4.5"/><circle class="cls-2" cx="346.68" cy="290.94" r="4.5"/><circle class="cls-2" cx="290.68" cy="372.94" r="4.5"/><circle class="cls-2" cx="213.68" cy="411.94" r="4.5"/><circle class="cls-2" cx="122.68" cy="403.94" r="4.5"/><circle class="cls-2" cx="50.68" cy="346.94" r="4.5"/><circle class="cls-2" cx="14.68" cy="275.94" r="4.5"/><circle class="cls-2" cx="23.68" cy="179.94" r="4.5"/><circle class="cls-2" cx="68.68" cy="116.94" r="4.5"/><circle class="cls-2" cx="317.68" cy="130.94" r="4.5"/><circle class="cls-2" cx="232.68" cy="79.94" r="4.5"/><circle class="cls-2" cx="42.42" cy="412.69" r="0.62"/><circle class="cls-2" cx="42.52" cy="412.72" r="0.62"/><path class="cls-3" d="M69.18,431.68a2.63,2.63,0,1,0-4.15,1.1l-1.8,4.8,1.62.61,1.81-4.81A2.63,2.63,0,0,0,69.18,431.68Z" transform="translate(-12.56 -15.69)"/><path d="M65.14,438.82l-2.53-.95,1.86-5a3.13,3.13,0,0,1-.67-3.25,3.06,3.06,0,0,1,1.63-1.74,3,3,0,0,1,2.38-.08,3.06,3.06,0,0,1,1.74,1.63,3,3,0,0,1,.08,2.38h0a3.11,3.11,0,0,1-2.63,2Zm-1.29-1.52.72.27,1.75-4.68h.35a2.14,2.14,0,0,0,2.06-1.39h0a2.12,2.12,0,0,0-.06-1.64,2.15,2.15,0,0,0-1.2-1.13,2.12,2.12,0,0,0-1.64.06,2.14,2.14,0,0,0-.49,3.6l.27.22Z" transform="translate(-12.56 -15.69)"/><path class="cls-3" d="M57.56,429.37a2.63,2.63,0,0,0-5.19.87,2.65,2.65,0,0,0,2.15,2.16l.84,5.06,1.71-.28-.84-5.07A2.63,2.63,0,0,0,57.56,429.37Z" transform="translate(-12.56 -15.69)"/><path d="M55,438l-.87-5.22a3.12,3.12,0,0,1,.36-6.07A3.11,3.11,0,0,1,58,429.29h0a3.11,3.11,0,0,1-1.28,3.06l.87,5.23Zm0-10.36a2,2,0,0,0-.35,0,2.14,2.14,0,0,0,0,4.23l.34.06.82,4.93.75-.13-.82-4.93.31-.16a2.15,2.15,0,0,0,1.08-2.24h0A2.14,2.14,0,0,0,55,427.66Z" transform="translate(-12.56 -15.69)"/><path class="cls-3" d="M46.35,433.19a2.63,2.63,0,1,0-1.12,4.13l3.26,4,1.34-1.1-3.26-4A2.64,2.64,0,0,0,46.35,433.19Z" transform="translate(-12.56 -15.69)"/><path d="M48.42,442l-3.36-4.09a3.13,3.13,0,0,1-3.15-1,3.12,3.12,0,0,1,4.82-4,3.13,3.13,0,0,1,.41,3.29l3.37,4.09Zm-3-5.22,3.18,3.86.58-.49L46,436.27l.18-.3a2.14,2.14,0,0,0-.17-2.48h0a2.15,2.15,0,0,0-3-.29,2.14,2.14,0,0,0-.78,1.45,2.17,2.17,0,0,0,.48,1.57,2.13,2.13,0,0,0,2.4.65Z" transform="translate(-12.56 -15.69)"/><path class="cls-3" d="M38.55,442.09A2.63,2.63,0,1,0,36.7,447a2.61,2.61,0,0,0,2.94-.78l4.81,1.8.61-1.62-4.81-1.8A2.64,2.64,0,0,0,38.55,442.09Z" transform="translate(-12.56 -15.69)"/><path d="M44.74,448.67l-5-1.86a3.12,3.12,0,1,1-1.06-5.17h0a3.11,3.11,0,0,1,2,2.64l5,1.86Zm-5.25-3,4.68,1.76.27-.71L39.76,445v-.34a2.15,2.15,0,0,0-1.39-2.06h0a2.12,2.12,0,0,0-1.64.05,2.15,2.15,0,0,0,.13,4,2.15,2.15,0,0,0,2.4-.64Z" transform="translate(-12.56 -15.69)"/><path class="cls-3" d="M36.24,453.71a2.63,2.63,0,1,0,3,3l5.06-.84-.28-1.71-5.07.85A2.62,2.62,0,0,0,36.24,453.71Z" transform="translate(-12.56 -15.69)"/><path d="M36.67,459.42a3.12,3.12,0,0,1-1.81-.58,3.12,3.12,0,0,1-.72-4.35,3.12,3.12,0,0,1,2-1.26h0a3.13,3.13,0,0,1,3.06,1.28l5.22-.86.45,2.66-5.23.87a3.11,3.11,0,0,1-2.48,2.2A2.92,2.92,0,0,1,36.67,459.42Zm0-5.26-.35,0h0a2.16,2.16,0,0,0-1.77,2.47,2.18,2.18,0,0,0,.87,1.39,2.1,2.1,0,0,0,1.61.37,2.16,2.16,0,0,0,1.76-1.75l.06-.34,4.92-.82-.12-.75-4.93.82-.16-.3A2.16,2.16,0,0,0,36.67,454.16Z" transform="translate(-12.56 -15.69)"/><path class="cls-3" d="M40.05,464.92A2.64,2.64,0,0,0,43.4,469a2.62,2.62,0,0,0,.79-2.94l4-3.27-1.1-1.33-4,3.26A2.62,2.62,0,0,0,40.05,464.92Z" transform="translate(-12.56 -15.69)"/><path d="M41.73,470.07a3.12,3.12,0,0,1-2.41-1.14,3.11,3.11,0,0,1,3.72-4.8l4.09-3.37,1.71,2.09-4.09,3.37a3.11,3.11,0,0,1-3,3.85Zm0-5.26a2.16,2.16,0,0,0-1.36.49h0a2.15,2.15,0,0,0-.77,1.45,2.13,2.13,0,0,0,.48,1.57,2.15,2.15,0,0,0,3.67-2.11l-.12-.32,3.86-3.17-.49-.59-3.85,3.17-.3-.18A2.13,2.13,0,0,0,41.72,464.81Z" transform="translate(-12.56 -15.69)"/><path class="cls-3" d="M49,472.73a2.63,2.63,0,1,0,4.15-1.1l1.8-4.81-1.62-.61L51.49,471A2.65,2.65,0,0,0,49,472.73Z" transform="translate(-12.56 -15.69)"/><path d="M51.42,476.77a3,3,0,0,1-1.09-.2,3.12,3.12,0,0,1-1.82-4h0a3.12,3.12,0,0,1,2.64-2l1.86-5,2.53,1-1.86,5a3.12,3.12,0,0,1-2.26,5.27Zm-2-3.87a2.13,2.13,0,0,0,1.25,2.76A2.15,2.15,0,0,0,52.8,472l-.27-.22,1.76-4.67-.72-.27-1.75,4.67h-.39a2.13,2.13,0,0,0-2,1.39Z" transform="translate(-12.56 -15.69)"/><path class="cls-3" d="M60.58,475a2.63,2.63,0,1,0,3-3l-.84-5.07-1.71.29.84,5.06A2.64,2.64,0,0,0,60.58,475Z" transform="translate(-12.56 -15.69)"/><path d="M63.17,477.72a3.12,3.12,0,0,1-1.81-.58,3.16,3.16,0,0,1-1.26-2h0a3.12,3.12,0,0,1,1.28-3.06l-.87-5.22,2.67-.44.87,5.22a3.12,3.12,0,0,1-.36,6.07A4.73,4.73,0,0,1,63.17,477.72Zm-1.54-10.09.82,4.92-.3.17A2.13,2.13,0,0,0,61.06,475h0a2.12,2.12,0,0,0,.87,1.4,2.14,2.14,0,0,0,3-.5,2.09,2.09,0,0,0,.37-1.6,2.13,2.13,0,0,0-1.75-1.76l-.34-.06-.82-4.93Z" transform="translate(-12.56 -15.69)"/><path class="cls-3" d="M71.79,471.22a2.63,2.63,0,1,0,1.12-4.14l-3.26-4-1.33,1.1,3.26,4A2.62,2.62,0,0,0,71.79,471.22Z" transform="translate(-12.56 -15.69)"/><path d="M73.83,472.6l-.3,0a3,3,0,0,1-2.06-1.1h0a3,3,0,0,1-.39-3.25l-3.35-4.07,2-1.63,3.35,4.07a3,3,0,1,1,.77,6ZM72.11,471a2.21,2.21,0,0,0,1.5.79,2.17,2.17,0,0,0,1.62-.49,2.21,2.21,0,0,0-2.17-3.79l-.28.1L69.6,463.7l-.7.57,3.19,3.87-.16.26a2.21,2.21,0,0,0,.18,2.56Z" transform="translate(-12.56 -15.69)"/><path class="cls-3" d="M79.6,462.31a2.63,2.63,0,1,0-1.1-4.14l-4.81-1.81L73.08,458l4.81,1.81A2.63,2.63,0,0,0,79.6,462.31Z" transform="translate(-12.56 -15.69)"/><path d="M80.52,463a3.13,3.13,0,0,1-1.09-.19h0a3.12,3.12,0,0,1-2-2.64l-5-1.86,1-2.53,5,1.86A3.11,3.11,0,1,1,80.52,463Zm-.75-1.1a2.15,2.15,0,1,0-.9-3.38l-.22.26L74,457l-.26.71,4.67,1.75v.35a2.13,2.13,0,0,0,1.39,2.06Z" transform="translate(-12.56 -15.69)"/><path class="cls-3" d="M81.9,450.7a2.64,2.64,0,1,0-3-3.05l-5.07.85.29,1.7,5.06-.84A2.64,2.64,0,0,0,81.9,450.7Z" transform="translate(-12.56 -15.69)"/><path d="M81.47,451.22a3.14,3.14,0,0,1-2.55-1.33l-5.22.87-.45-2.66,5.23-.87a3.11,3.11,0,1,1,3.5,3.94h0A2.94,2.94,0,0,1,81.47,451.22Zm-2-2.39.17.3a2.15,2.15,0,0,0,2.23,1.09h0a2.15,2.15,0,1,0-2.47-2.49l0,.34-4.93.82.12.76Z" transform="translate(-12.56 -15.69)"/><path class="cls-3" d="M78.09,439.48A2.63,2.63,0,1,0,74,438.36l-4,3.26,1.1,1.34,4-3.26A2.64,2.64,0,0,0,78.09,439.48Z" transform="translate(-12.56 -15.69)"/><path d="M71,443.64l-1.72-2.08,4.09-3.37a3.14,3.14,0,0,1,1-3.15,3.12,3.12,0,0,1,4.38.43,3.13,3.13,0,0,1-.42,4.39h0a3.15,3.15,0,0,1-3.29.42Zm-.35-1.95.48.59L75,439.1l.29.18a2.14,2.14,0,0,0,2.77-3.19,2.16,2.16,0,0,0-3-.3,2.17,2.17,0,0,0-.65,2.4l.12.33Z" transform="translate(-12.56 -15.69)"/><circle class="cls-4" cx="46.03" cy="436.32" r="16.83"/><path class="cls-5" d="M71.54,440.71s9.31,11.52,0,22.3c-9.67,11.17-23.49,2.86-21.45,3.08C45.68,468.44,81.51,467.72,71.54,440.71Z" transform="translate(-12.56 -15.69)"/><path d="M58.89,435.67h0A16.62,16.62,0,1,1,44.49,444a16.59,16.59,0,0,1,14.4-8.31m0-1a17.59,17.59,0,1,0,8.77,2.36,17.58,17.58,0,0,0-8.77-2.36Z" transform="translate(-12.56 -15.69)"/><path class="cls-6" d="M48.29,463.84a73.69,73.69,0,0,1,20.23,0S59.25,445.14,48.29,463.84Z" transform="translate(-12.56 -15.69)"/><path class="cls-7" d="M55,457.52c-1.22,1.26-1.64,2.91-2.33,5a3,3,0,0,0,3.47,0S55.31,459.36,55,457.52Z" transform="translate(-12.56 -15.69)"/><path d="M54.43,463.07a3.19,3.19,0,0,1-1.75-.57l0,0v0l.27-.79A10.29,10.29,0,0,1,55,457.49l.06-.07v.09c.27,1.82,1.13,4.91,1.14,4.94v0l0,0A3.19,3.19,0,0,1,54.43,463.07Zm-1.68-.62a3,3,0,0,0,3.37,0c-.09-.32-.85-3.1-1.12-4.84a10.49,10.49,0,0,0-2,4.07C52.92,461.93,52.84,462.19,52.75,462.45Z" transform="translate(-12.56 -15.69)"/><path class="cls-7" d="M56.64,461.85c-.41-1.29-.79-2.58-1.15-3.88a2.81,2.81,0,0,1-.16-1,.54.54,0,0,1,.2-.44.65.65,0,0,1,.27-.08c.94-.15,1.9-.23,2.86-.3" transform="translate(-12.56 -15.69)"/><path class="cls-7" d="M60.26,461.76A17.15,17.15,0,0,1,61.41,459a5.31,5.31,0,0,0,.67-2.07c-.11,0-3.26-.74-3-.74C59.54,456.2,60.53,460.15,60.26,461.76Z" transform="translate(-12.56 -15.69)"/><path class="cls-7" d="M58.49,458.14c.94,1.38.67,2.92,1.36,4.36-.22.08-2.93.25-2.88,0A27.63,27.63,0,0,1,58.49,458.14Z" transform="translate(-12.56 -15.69)"/><path d="M57.83,462.69a2.19,2.19,0,0,1-.88-.1.11.11,0,0,1,0-.08,28.09,28.09,0,0,1,1.52-4.39l0-.08.05.07a6,6,0,0,1,.83,2.44,6.89,6.89,0,0,0,.54,1.93l0,0-.05,0A13.71,13.71,0,0,1,57.83,462.69Zm-.81-.17a11.76,11.76,0,0,0,2.76,0,7.59,7.59,0,0,1-.52-1.9,6,6,0,0,0-.76-2.33A28.63,28.63,0,0,0,57,462.52Z" transform="translate(-12.56 -15.69)"/><path class="cls-7" d="M62.14,458c1.1,1.15,1.49,2.65,2.11,4.49a2.69,2.69,0,0,1-3.15,0S61.89,459.7,62.14,458Z" transform="translate(-12.56 -15.69)"/><path d="M62.68,463.06a3,3,0,0,1-1.6-.51l0,0v0s.78-2.83,1-4.49v-.07l.06.05a9.51,9.51,0,0,1,1.88,3.79l.24.72v0l0,0A2.9,2.9,0,0,1,62.68,463.06Zm-1.53-.56a2.68,2.68,0,0,0,3.06,0c-.08-.24-.16-.47-.23-.7a9.63,9.63,0,0,0-1.81-3.7C61.92,459.68,61.23,462.21,61.15,462.5Z" transform="translate(-12.56 -15.69)"/><path class="cls-7" d="M51.16,460.62a5.42,5.42,0,0,0-1.52,2.53,1.6,1.6,0,0,0,2-.17A22.94,22.94,0,0,1,51.16,460.62Z" transform="translate(-12.56 -15.69)"/><path d="M50.49,463.47a1.52,1.52,0,0,1-.86-.3h0v0a5.33,5.33,0,0,1,1.53-2.54l0,0v.06a22.36,22.36,0,0,0,.51,2.35v0h0A2.26,2.26,0,0,1,50.49,463.47Zm-.82-.33c.72.45,1.21.31,2-.17,0-.16-.32-1.2-.49-2.29A5.27,5.27,0,0,0,49.67,463.14Z" transform="translate(-12.56 -15.69)"/><path class="cls-7" d="M52.51,461.76c0-.11-.75-1-.83-1.27a1.66,1.66,0,0,1-.08-1.11,5.37,5.37,0,0,1,1-1.1s1.07-.77.94-.23C53.52,458.06,53,460.27,52.51,461.76Z" transform="translate(-12.56 -15.69)"/><path d="M52.54,461.77l-.07,0a3.78,3.78,0,0,0-.38-.57,3.63,3.63,0,0,1-.44-.68,1.55,1.55,0,0,1-.08-1.14,3.78,3.78,0,0,1,.72-.84l.27-.26s.73-.54.94-.42.08.11,0,.22-.56,2.24-1,3.71Zm.87-3.88a2.22,2.22,0,0,0-.8.42l-.28.27a3.39,3.39,0,0,0-.7.82,1.56,1.56,0,0,0,.08,1.08,4.3,4.3,0,0,0,.44.66,3.93,3.93,0,0,1,.35.51c.45-1.47,1-3.58,1-3.6s0-.13,0-.15Z" transform="translate(-12.56 -15.69)"/><path class="cls-7" d="M68,463.54a4.24,4.24,0,0,0-1.67-2.14.25.25,0,0,0-.17,0c-.12,0-.14.19-.14.32,0,.4,0,.81,0,1.21s0,.51.4.54S67.49,463.52,68,463.54Z" transform="translate(-12.56 -15.69)"/><path class="cls-7" d="M63,457.59s2.27,1.22,2.73,2.6c0,0,0,2.45-.42,2.51S63,457.59,63,457.59Z" transform="translate(-12.56 -15.69)"/><path class="cls-8" d="M51.92,442.8a5.8,5.8,0,0,0-1,3.32,5.87,5.87,0,0,0,11,2.8Z" transform="translate(-12.56 -15.69)"/><path class="cls-6" d="M56.77,452.6a6.49,6.49,0,0,1-6.49-6.48,6.39,6.39,0,0,1,1.13-3.66.62.62,0,0,1,.83-.18l10,6.12a.61.61,0,0,1,.22.82A6.48,6.48,0,0,1,56.77,452.6Zm-4.65-9a5.27,5.27,0,0,0,4.65,7.73,5.28,5.28,0,0,0,4.32-2.25Z" transform="translate(-12.56 -15.69)"/><path class="cls-6" d="M57,449.56a3.52,3.52,0,0,1-2.9-5.5.6.6,0,0,1,.82-.17l5,3a.62.62,0,0,1,.22.81A3.5,3.5,0,0,1,57,449.56Zm-2.15-4.28a2.17,2.17,0,0,0-.13.76,2.29,2.29,0,0,0,3.95,1.57Z" transform="translate(-12.56 -15.69)"/><path class="cls-7" d="M68.6,445.79a5.37,5.37,0,0,0-.55-.69l-4.13,3.84c1.26,1.86,3.32,2.66,4.61,1.79S69.85,447.65,68.6,445.79Z" transform="translate(-12.56 -15.69)"/><path class="cls-6" d="M67.31,451.7a5,5,0,0,1-3.9-2.41.62.62,0,0,1,.09-.8l4.13-3.84a.62.62,0,0,1,.86,0,5.22,5.22,0,0,1,.62.77h0c1.43,2.13,1.33,4.73-.24,5.79A2.79,2.79,0,0,1,67.31,451.7ZM64.74,449c1.05,1.25,2.54,1.81,3.44,1.2s.95-2.54-.09-4.09h0L68,446Z" transform="translate(-12.56 -15.69)"/><path class="cls-6" d="M54.55,444.41a3,3,0,0,0-.5,1.63,2.9,2.9,0,0,0,5.45,1.39Z" transform="translate(-12.56 -15.69)"/><path class="cls-6" d="M65,450.17A1.75,1.75,0,0,0,66,447l-2.07,1.92A5.14,5.14,0,0,0,65,450.17Z" transform="translate(-12.56 -15.69)"/><path class="cls-6" d="M65,450.79a.59.59,0,0,1-.38-.14,5.85,5.85,0,0,1-1.25-1.37.61.61,0,0,1,.09-.79l2.07-1.92a.62.62,0,0,1,.79,0,2.37,2.37,0,0,1-1.28,4.26Zm-.3-1.77a4.7,4.7,0,0,0,.49.51,1.15,1.15,0,0,0,.85-1.11,1.22,1.22,0,0,0-.13-.53Z" transform="translate(-12.56 -15.69)"/><circle class="cls-2" cx="55.45" cy="424.4" r="1.04"/><circle class="cls-9" cx="45.48" cy="423.56" r="1.04"/><ellipse class="cls-9" cx="32.18" cy="435.55" rx="0.35" ry="1.11"/><ellipse class="cls-9" cx="34.95" cy="430.28" rx="0.62" ry="1.39"/><ellipse class="cls-9" cx="37.65" cy="439.35" rx="0.42" ry="1.32"/><circle class="cls-9" cx="54.13" cy="437.35" r="0.69"/><ellipse class="cls-9" cx="48.73" cy="428.41" rx="0.69" ry="1.32"/><ellipse class="cls-9" cx="43.33" cy="449.33" rx="0.28" ry="0.76"/><ellipse class="cls-9" cx="54.76" cy="442.89" rx="0.35" ry="1.11"/><ellipse class="cls-9" cx="60.78" cy="435.34" rx="0.42" ry="0.9"/><circle class="cls-9" cx="33.36" cy="442.89" r="0.42"/><circle class="cls-2" cx="69.73" cy="432.3" r="0.62"/><circle class="cls-2" cx="69.04" cy="443.25" r="0.62"/><circle class="cls-2" cx="61.28" cy="454.61" r="0.62"/><circle class="cls-2" cx="50.62" cy="460.01" r="0.62"/><circle class="cls-2" cx="38.01" cy="458.9" r="0.62"/><circle class="cls-2" cx="28.04" cy="451.01" r="0.62"/><circle class="cls-2" cx="23.05" cy="441.17" r="0.62"/><circle class="cls-2" cx="24.3" cy="427.87" r="0.62"/><circle class="cls-2" cx="30.53" cy="419.14" r="0.62"/><circle class="cls-2" cx="65.02" cy="421.08" r="0.62"/><circle class="cls-2" cx="53.25" cy="414.02" r="0.62"/><path class="cls-3" d="M425.18,270.68a2.63,2.63,0,1,0-4.15,1.1l-1.8,4.8,1.62.61,1.81-4.81A2.63,2.63,0,0,0,425.18,270.68Z" transform="translate(-12.56 -15.69)"/><path d="M421.13,277.82l-2.52-.95,1.86-5a3.11,3.11,0,0,1-.67-3.25,3.06,3.06,0,0,1,1.63-1.74,3,3,0,0,1,2.38-.08,3.06,3.06,0,0,1,1.74,1.63,3,3,0,0,1,.08,2.38,3.11,3.11,0,0,1-2.64,2Zm-1.28-1.52.72.27,1.75-4.68h.35a2.17,2.17,0,0,0,2.06-1.39h0a2.12,2.12,0,0,0-.06-1.64,2.15,2.15,0,0,0-1.2-1.13,2.15,2.15,0,0,0-2.76,1.26,2.14,2.14,0,0,0,.63,2.4l.27.22Z" transform="translate(-12.56 -15.69)"/><path class="cls-3" d="M413.56,268.37a2.63,2.63,0,0,0-5.19.87,2.65,2.65,0,0,0,2.15,2.16l.84,5.06,1.71-.28-.84-5.07A2.63,2.63,0,0,0,413.56,268.37Z" transform="translate(-12.56 -15.69)"/><path d="M411,277l-.86-5.22a3.12,3.12,0,0,1,.36-6.07,3.12,3.12,0,0,1,3.58,2.56h0a3.11,3.11,0,0,1-1.28,3.06l.87,5.23Zm0-10.36-.36,0a2.15,2.15,0,0,0-1.76,2.47,2.15,2.15,0,0,0,1.75,1.76l.34.06.82,4.93.75-.13-.82-4.93.31-.16a2.15,2.15,0,0,0,1.08-2.24h0A2.14,2.14,0,0,0,411,266.66Z" transform="translate(-12.56 -15.69)"/><path class="cls-3" d="M402.35,272.19a2.63,2.63,0,1,0-1.12,4.13l3.26,4,1.34-1.1-3.26-4A2.64,2.64,0,0,0,402.35,272.19Z" transform="translate(-12.56 -15.69)"/><path d="M404.42,281l-3.36-4.09a3.12,3.12,0,0,1-2.72-5.43,3.08,3.08,0,0,1,2.28-.69,3.11,3.11,0,0,1,2.11,1.12h0a3.15,3.15,0,0,1,.42,3.29l3.36,4.09Zm-3-5.22,3.18,3.86.58-.49L402,275.27l.18-.3a2.15,2.15,0,0,0-.17-2.48h0a2.17,2.17,0,0,0-1.45-.77,2.21,2.21,0,0,0-1.58.48,2.15,2.15,0,0,0-.29,3,2.13,2.13,0,0,0,2.4.65Z" transform="translate(-12.56 -15.69)"/><path class="cls-3" d="M394.55,281.09A2.63,2.63,0,0,0,392.7,286a2.61,2.61,0,0,0,2.94-.78l4.81,1.8.61-1.62-4.81-1.8A2.64,2.64,0,0,0,394.55,281.09Z" transform="translate(-12.56 -15.69)"/><path d="M400.73,287.67l-5-1.86a3.12,3.12,0,1,1-1.06-5.17h0a3.14,3.14,0,0,1,2,2.64l4.95,1.86Zm-5.24-3,4.68,1.76.27-.71L395.76,284v-.34a2.15,2.15,0,0,0-1.39-2.06h0a2.15,2.15,0,1,0,.89,3.38Z" transform="translate(-12.56 -15.69)"/><path class="cls-3" d="M392.24,292.71a2.63,2.63,0,1,0,3,3l5.06-.84-.28-1.71-5.07.85A2.62,2.62,0,0,0,392.24,292.71Z" transform="translate(-12.56 -15.69)"/><path d="M392.67,298.42a3.12,3.12,0,0,1-1.81-.58,3.12,3.12,0,0,1-.72-4.35,3.12,3.12,0,0,1,2-1.26h0a3.13,3.13,0,0,1,3.06,1.28l5.23-.86.44,2.66-5.23.87a3.11,3.11,0,0,1-2.48,2.2A2.92,2.92,0,0,1,392.67,298.42Zm-.35-5.23a2.1,2.1,0,0,0-1.39.87,2.07,2.07,0,0,0-.37,1.6,2.1,2.1,0,0,0,.87,1.39,2.07,2.07,0,0,0,1.6.37,2.15,2.15,0,0,0,1.76-1.75l.06-.34,4.92-.82-.12-.75-4.93.82-.16-.3a2.16,2.16,0,0,0-2.24-1.09Z" transform="translate(-12.56 -15.69)"/><path class="cls-3" d="M396.05,303.92A2.64,2.64,0,0,0,399.4,308a2.62,2.62,0,0,0,.79-2.94l4-3.27-1.1-1.33-4,3.26A2.62,2.62,0,0,0,396.05,303.92Z" transform="translate(-12.56 -15.69)"/><path d="M397.73,309.07a3.11,3.11,0,0,1-2-5.52h0a3.11,3.11,0,0,1,3.29-.42l4.09-3.37,1.71,2.09-4.09,3.37a3.11,3.11,0,0,1-3,3.85Zm0-5.26a2.16,2.16,0,0,0-1.36.49h0a2.11,2.11,0,0,0-.77,1.45,2.08,2.08,0,0,0,.48,1.57,2.15,2.15,0,0,0,3.67-2.11l-.12-.32,3.86-3.17-.49-.59-3.85,3.17-.3-.18A2.13,2.13,0,0,0,397.72,303.81Z" transform="translate(-12.56 -15.69)"/><path class="cls-3" d="M405,311.73a2.63,2.63,0,1,0,4.15-1.1l1.8-4.81-1.62-.61-1.8,4.81A2.65,2.65,0,0,0,405,311.73Z" transform="translate(-12.56 -15.69)"/><path d="M407.42,315.77a3,3,0,0,1-1.09-.2,3.12,3.12,0,0,1-1.82-4h0a3.12,3.12,0,0,1,2.64-2l1.86-5,2.53,1-1.86,5a3.11,3.11,0,0,1-2.26,5.27Zm-2-3.87a2.15,2.15,0,0,0,4,1.51,2.16,2.16,0,0,0-.64-2.41l-.27-.22,1.76-4.67-.72-.27-1.75,4.67h-.34A2.16,2.16,0,0,0,405.42,311.9Z" transform="translate(-12.56 -15.69)"/><path class="cls-3" d="M416.58,314a2.63,2.63,0,1,0,3-3l-.84-5.07-1.71.29.84,5.06A2.64,2.64,0,0,0,416.58,314Z" transform="translate(-12.56 -15.69)"/><path d="M419.17,316.72a3.12,3.12,0,0,1-1.81-.58,3.16,3.16,0,0,1-1.26-2,3.12,3.12,0,0,1,1.28-3.06l-.87-5.22,2.67-.44.87,5.22a3.12,3.12,0,0,1-.36,6.07A4.73,4.73,0,0,1,419.17,316.72Zm-1.54-10.09.82,4.92-.3.17a2.13,2.13,0,0,0-1.09,2.23h0a2.12,2.12,0,0,0,.87,1.4,2.14,2.14,0,1,0,1.61-3.86l-.34-.06-.82-4.93Z" transform="translate(-12.56 -15.69)"/><path class="cls-10" d="M427.79,310.22a2.63,2.63,0,1,0,1.12-4.14l-3.26-4-1.33,1.1,3.26,4A2.62,2.62,0,0,0,427.79,310.22Z" transform="translate(-12.56 -15.69)"/><path class="cls-11" d="M435.6,301.31a2.63,2.63,0,1,0-1.1-4.14l-4.81-1.81-.61,1.62,4.81,1.81A2.63,2.63,0,0,0,435.6,301.31Z" transform="translate(-12.56 -15.69)"/><path class="cls-11" d="M437.9,289.7a2.64,2.64,0,1,0-3-3.05l-5.07.85.29,1.7,5.06-.84A2.64,2.64,0,0,0,437.9,289.7Z" transform="translate(-12.56 -15.69)"/><path class="cls-11" d="M434.09,278.48a2.63,2.63,0,1,0-4.14-1.12l-4,3.26,1.1,1.34,4-3.26A2.64,2.64,0,0,0,434.09,278.48Z" transform="translate(-12.56 -15.69)"/><circle class="cls-4" cx="402.03" cy="275.32" r="16.83"/><path class="cls-5" d="M427.54,279.71s9.31,11.52,0,22.3c-9.67,11.17-23.49,2.86-21.45,3.08C401.68,307.44,437.51,306.72,427.54,279.71Z" transform="translate(-12.56 -15.69)"/><path d="M414.89,274.67h0a16.62,16.62,0,1,1-14.4,8.31,16.59,16.59,0,0,1,14.4-8.31m0-1a17.59,17.59,0,1,0,8.77,2.36,17.58,17.58,0,0,0-8.77-2.36Z" transform="translate(-12.56 -15.69)"/><path class="cls-6" d="M404.29,302.84a73.69,73.69,0,0,1,20.23,0S415.25,284.14,404.29,302.84Z" transform="translate(-12.56 -15.69)"/><path class="cls-7" d="M411,296.52c-1.22,1.26-1.64,2.91-2.33,5a3,3,0,0,0,3.47,0S411.31,298.36,411,296.52Z" transform="translate(-12.56 -15.69)"/><path d="M410.43,302.07a3.19,3.19,0,0,1-1.75-.57l0,0v0c.09-.27.18-.53.26-.79a10.43,10.43,0,0,1,2.08-4.17l.06-.07v.09c.27,1.82,1.13,4.91,1.14,4.94v0l0,0A3.19,3.19,0,0,1,410.43,302.07Zm-1.68-.62a3,3,0,0,0,3.37,0c-.09-.32-.85-3.1-1.12-4.84a10.32,10.32,0,0,0-2,4.08C408.92,300.93,408.84,301.19,408.75,301.45Z" transform="translate(-12.56 -15.69)"/><path class="cls-7" d="M412.64,300.85c-.41-1.29-.79-2.58-1.15-3.88a2.81,2.81,0,0,1-.16-1,.54.54,0,0,1,.2-.44.61.61,0,0,1,.27-.08c.94-.15,1.9-.23,2.86-.3" transform="translate(-12.56 -15.69)"/><path class="cls-7" d="M416.26,300.76a17.15,17.15,0,0,1,1.15-2.75,5.31,5.31,0,0,0,.67-2.07c-.11,0-3.26-.74-3-.74C415.54,295.2,416.53,299.15,416.26,300.76Z" transform="translate(-12.56 -15.69)"/><path class="cls-7" d="M414.49,297.14c.94,1.38.67,2.92,1.36,4.36-.22.08-2.93.25-2.88,0A27.63,27.63,0,0,1,414.49,297.14Z" transform="translate(-12.56 -15.69)"/><path d="M413.83,301.69a2.19,2.19,0,0,1-.88-.1.11.11,0,0,1,0-.08,28.09,28.09,0,0,1,1.52-4.39l0-.08,0,.07a6,6,0,0,1,.83,2.44,7.24,7.24,0,0,0,.54,1.93l0,0-.05,0A13.71,13.71,0,0,1,413.83,301.69Zm-.81-.17a11.76,11.76,0,0,0,2.76,0,7.59,7.59,0,0,1-.52-1.9,6,6,0,0,0-.76-2.33A28.63,28.63,0,0,0,413,301.52Z" transform="translate(-12.56 -15.69)"/><path class="cls-7" d="M418.14,297c1.1,1.15,1.49,2.65,2.11,4.49a2.69,2.69,0,0,1-3.15,0S417.89,298.7,418.14,297Z" transform="translate(-12.56 -15.69)"/><path d="M418.68,302.06a2.93,2.93,0,0,1-1.6-.51l0,0v0s.78-2.83,1-4.49v-.07l.06.05a9.51,9.51,0,0,1,1.88,3.79l.24.72v0l0,0A3,3,0,0,1,418.68,302.06Zm-1.53-.56a2.68,2.68,0,0,0,3.06,0c-.08-.24-.16-.47-.23-.7a9.63,9.63,0,0,0-1.81-3.7C417.92,298.68,417.23,301.21,417.15,301.5Z" transform="translate(-12.56 -15.69)"/><path class="cls-7" d="M407.16,299.62a5.42,5.42,0,0,0-1.52,2.53,1.6,1.6,0,0,0,2-.17A22.94,22.94,0,0,1,407.16,299.62Z" transform="translate(-12.56 -15.69)"/><path d="M406.49,302.47a1.52,1.52,0,0,1-.86-.3h0v0a5.32,5.32,0,0,1,1.52-2.54l0,0v.06a20.94,20.94,0,0,0,.5,2.35v0h0A2.26,2.26,0,0,1,406.49,302.47Zm-.82-.33c.73.46,1.22.31,2-.17,0-.16-.32-1.2-.49-2.29A5.27,5.27,0,0,0,405.67,302.14Z" transform="translate(-12.56 -15.69)"/><path class="cls-7" d="M408.51,300.76c0-.11-.75-1-.83-1.27a1.66,1.66,0,0,1-.08-1.11,5.37,5.37,0,0,1,1-1.1s1.07-.77.94-.23C409.52,297.06,409,299.27,408.51,300.76Z" transform="translate(-12.56 -15.69)"/><path d="M408.54,300.77l-.07,0a3.78,3.78,0,0,0-.38-.57,3.63,3.63,0,0,1-.44-.68,1.55,1.55,0,0,1-.08-1.14,3.78,3.78,0,0,1,.72-.84l.27-.26s.73-.54.94-.42.08.11.05.22v.07c-.22.86-.64,2.48-1,3.64Zm-.07,0Zm.94-3.86a2.22,2.22,0,0,0-.8.42l-.27.26a3.45,3.45,0,0,0-.71.83,1.5,1.5,0,0,0,.08,1.08,4.3,4.3,0,0,0,.44.66,5.39,5.39,0,0,1,.35.51c.35-1.15.75-2.7,1-3.54a.35.35,0,0,1,0-.06h0c0-.06,0-.13,0-.15Z" transform="translate(-12.56 -15.69)"/><path class="cls-7" d="M424,302.54a4.24,4.24,0,0,0-1.67-2.14.25.25,0,0,0-.17,0c-.12,0-.14.19-.14.32,0,.4,0,.81,0,1.21s0,.51.4.54S423.49,302.52,424,302.54Z" transform="translate(-12.56 -15.69)"/><path class="cls-7" d="M419,296.59s2.27,1.22,2.73,2.6c0,0,0,2.45-.42,2.51S419,296.59,419,296.59Z" transform="translate(-12.56 -15.69)"/><path class="cls-8" d="M407.92,281.8a5.8,5.8,0,0,0-1,3.32,5.87,5.87,0,0,0,11,2.8Z" transform="translate(-12.56 -15.69)"/><path class="cls-6" d="M412.77,291.6a6.49,6.49,0,0,1-6.49-6.48,6.41,6.41,0,0,1,1.13-3.66.62.62,0,0,1,.83-.18l10,6.12a.61.61,0,0,1,.22.82A6.47,6.47,0,0,1,412.77,291.6Zm-4.65-9a5.27,5.27,0,0,0,4.65,7.73,5.28,5.28,0,0,0,4.32-2.25Z" transform="translate(-12.56 -15.69)"/><path class="cls-6" d="M413,288.56a3.52,3.52,0,0,1-3.51-3.52,3.48,3.48,0,0,1,.61-2,.6.6,0,0,1,.82-.17l4.95,3a.62.62,0,0,1,.22.81A3.5,3.5,0,0,1,413,288.56Zm-2.15-4.28a2.17,2.17,0,0,0-.13.76,2.29,2.29,0,0,0,3.95,1.57Z" transform="translate(-12.56 -15.69)"/><path class="cls-7" d="M424.6,284.79a5.37,5.37,0,0,0-.55-.69l-4.13,3.84c1.26,1.86,3.32,2.66,4.61,1.79S425.85,286.65,424.6,284.79Z" transform="translate(-12.56 -15.69)"/><path class="cls-6" d="M423.31,290.7a5,5,0,0,1-3.9-2.41.62.62,0,0,1,.09-.8l4.13-3.84a.64.64,0,0,1,.87,0,5.17,5.17,0,0,1,.61.77c1.43,2.14,1.33,4.73-.24,5.79A2.79,2.79,0,0,1,423.31,290.7ZM420.74,288c1.05,1.26,2.55,1.81,3.44,1.2s.95-2.54-.09-4.09h0L424,285Z" transform="translate(-12.56 -15.69)"/><path class="cls-6" d="M410.55,283.41a3,3,0,0,0-.5,1.63,2.9,2.9,0,0,0,5.45,1.39Z" transform="translate(-12.56 -15.69)"/><path class="cls-6" d="M421,289.17A1.75,1.75,0,0,0,422,286l-2.07,1.92A5.14,5.14,0,0,0,421,289.17Z" transform="translate(-12.56 -15.69)"/><path class="cls-6" d="M421,289.79a.59.59,0,0,1-.38-.14,5.85,5.85,0,0,1-1.25-1.37.61.61,0,0,1,.09-.79l2.07-1.92a.62.62,0,0,1,.79,0,2.37,2.37,0,0,1-1.28,4.26Zm-.3-1.77a4.7,4.7,0,0,0,.49.51,1.15,1.15,0,0,0,.85-1.11,1.22,1.22,0,0,0-.13-.53Z" transform="translate(-12.56 -15.69)"/><circle class="cls-2" cx="411.45" cy="263.4" r="1.04"/><circle class="cls-9" cx="401.48" cy="262.56" r="1.04"/><ellipse class="cls-9" cx="388.18" cy="274.55" rx="0.35" ry="1.11"/><ellipse class="cls-9" cx="390.95" cy="269.28" rx="0.62" ry="1.39"/><ellipse class="cls-9" cx="393.65" cy="278.35" rx="0.42" ry="1.32"/><circle class="cls-9" cx="410.13" cy="276.35" r="0.69"/><ellipse class="cls-9" cx="404.73" cy="267.41" rx="0.69" ry="1.32"/><ellipse class="cls-9" cx="399.33" cy="288.33" rx="0.28" ry="0.76"/><ellipse class="cls-9" cx="410.76" cy="281.89" rx="0.35" ry="1.11"/><ellipse class="cls-9" cx="416.78" cy="274.34" rx="0.42" ry="0.9"/><circle class="cls-9" cx="389.36" cy="281.89" r="0.42"/><circle class="cls-2" cx="425.73" cy="271.3" r="0.62"/><circle class="cls-2" cx="425.04" cy="282.25" r="0.62"/><circle class="cls-2" cx="417.28" cy="293.61" r="0.62"/><circle class="cls-2" cx="406.62" cy="299.01" r="0.62"/><circle class="cls-2" cx="394.01" cy="297.9" r="0.62"/><circle class="cls-2" cx="384.04" cy="290.01" r="0.62"/><circle class="cls-2" cx="379.05" cy="280.17" r="0.62"/><circle class="cls-2" cx="380.3" cy="266.87" r="0.62"/><circle class="cls-2" cx="386.53" cy="258.14" r="0.62"/><circle class="cls-2" cx="421.02" cy="260.08" r="0.62"/><circle class="cls-2" cx="409.25" cy="253.02" r="0.62"/><path class="cls-3" d="M123.18,20.68a2.63,2.63,0,1,0-4.15,1.1l-1.8,4.8,1.62.61,1.81-4.81A2.63,2.63,0,0,0,123.18,20.68Z" transform="translate(-12.56 -15.69)"/><path d="M119.14,27.82l-2.53-.95,1.86-5a3.13,3.13,0,0,1-.67-3.25,3.06,3.06,0,0,1,1.63-1.74,3,3,0,0,1,2.38-.08,3.11,3.11,0,0,1,1.82,4h0a3.11,3.11,0,0,1-2.63,2Zm-1.29-1.52.72.27,1.75-4.68h.35a2.19,2.19,0,0,0,2.06-1.39h0a2.12,2.12,0,0,0-.06-1.64,2.15,2.15,0,0,0-1.2-1.13,2.12,2.12,0,0,0-1.64.06,2.14,2.14,0,0,0-.49,3.6l.27.22Z" transform="translate(-12.56 -15.69)"/><path class="cls-3" d="M111.56,18.37a2.63,2.63,0,0,0-5.19.87,2.65,2.65,0,0,0,2.15,2.16l.84,5.06,1.71-.28-.84-5.07A2.63,2.63,0,0,0,111.56,18.37Z" transform="translate(-12.56 -15.69)"/><path d="M109,27l-.87-5.22a3.12,3.12,0,0,1,.36-6.07,3.11,3.11,0,0,1,2.3,5.62l.87,5.23Zm0-10.36a2,2,0,0,0-.35,0,2.14,2.14,0,0,0,0,4.23l.34.06.82,4.93.75-.13-.82-4.93.31-.16a2.15,2.15,0,0,0,1.08-2.24h0A2.14,2.14,0,0,0,109,16.66Z" transform="translate(-12.56 -15.69)"/><path class="cls-3" d="M100.35,22.19a2.63,2.63,0,1,0-1.12,4.14l3.26,4,1.34-1.1-3.26-4A2.64,2.64,0,0,0,100.35,22.19Z" transform="translate(-12.56 -15.69)"/><path d="M102.42,31l-3.36-4.09a3.11,3.11,0,0,1-2.72-5.43,3,3,0,0,1,2.28-.69,3.07,3.07,0,0,1,2.11,1.12,3.15,3.15,0,0,1,.42,3.29l3.36,4.09Zm-3-5.22,3.18,3.86.58-.49L100,25.27l.18-.3a2.14,2.14,0,0,0-.17-2.48h0a2.15,2.15,0,0,0-3.32,2.73,2.13,2.13,0,0,0,2.4.65Z" transform="translate(-12.56 -15.69)"/><path class="cls-3" d="M92.55,31.09A2.63,2.63,0,0,0,90.7,36a2.61,2.61,0,0,0,2.94-.78L98.45,37l.61-1.62-4.81-1.8A2.64,2.64,0,0,0,92.55,31.09Z" transform="translate(-12.56 -15.69)"/><path d="M98.74,37.67l-5-1.86a3.11,3.11,0,0,1-5-1,3.1,3.1,0,0,1-.09-2.39,3.13,3.13,0,0,1,4-1.82h0a3.1,3.1,0,0,1,2,2.64l5,1.86Zm-5.25-3,4.68,1.75.27-.71L93.76,34v-.34a2.15,2.15,0,1,0-.5,1.32Z" transform="translate(-12.56 -15.69)"/><path class="cls-3" d="M90.24,42.71a2.63,2.63,0,1,0,3,3l5.06-.84-.28-1.71L93,44.05A2.62,2.62,0,0,0,90.24,42.71Z" transform="translate(-12.56 -15.69)"/><path d="M90.67,48.42a3.12,3.12,0,0,1-3.07-2.6,3.08,3.08,0,0,1,.54-2.33,3.12,3.12,0,0,1,2-1.26h0a3.11,3.11,0,0,1,3.06,1.28l5.23-.87.44,2.67-5.23.87a3.11,3.11,0,0,1-2.48,2.2A2.92,2.92,0,0,1,90.67,48.42Zm0-5.26-.35,0h0a2.1,2.1,0,0,0-1.39.87,2.07,2.07,0,0,0-.37,1.6,2.15,2.15,0,0,0,4.23,0l.06-.34,4.92-.82-.12-.75-4.93.82-.16-.3A2.16,2.16,0,0,0,90.67,43.16Z" transform="translate(-12.56 -15.69)"/><path class="cls-3" d="M94.05,53.92A2.64,2.64,0,1,0,97.4,58a2.62,2.62,0,0,0,.79-2.94l4-3.27-1.1-1.33-4,3.26A2.62,2.62,0,0,0,94.05,53.92Z" transform="translate(-12.56 -15.69)"/><path d="M95.73,59.07h-.31A3.12,3.12,0,1,1,97,53.13l4.09-3.37,1.71,2.09-4.09,3.36a3.11,3.11,0,0,1-3,3.86Zm0-5.26a2.16,2.16,0,0,0-1.36.49h0a2.15,2.15,0,0,0-.77,1.45,2.08,2.08,0,0,0,.48,1.57,2.11,2.11,0,0,0,1.45.77,2.08,2.08,0,0,0,1.57-.48,2.16,2.16,0,0,0,.65-2.4l-.12-.32,3.86-3.17-.49-.59L97.14,54.3l-.3-.18A2.13,2.13,0,0,0,95.72,53.81Z" transform="translate(-12.56 -15.69)"/><path class="cls-3" d="M103,61.73a2.63,2.63,0,1,0,4.15-1.1l1.8-4.81-1.62-.61L105.49,60A2.65,2.65,0,0,0,103,61.73Z" transform="translate(-12.56 -15.69)"/><path d="M105.43,65.77a3.24,3.24,0,0,1-1.1-.2,3.11,3.11,0,0,1-1.82-4h0a3.12,3.12,0,0,1,2.64-2l1.86-5,2.53.95-1.86,5a3.1,3.1,0,0,1,.66,3.25,3.14,3.14,0,0,1-1.62,1.74A3.09,3.09,0,0,1,105.43,65.77Zm-2-3.87a2.08,2.08,0,0,0,0,1.64A2.15,2.15,0,1,0,106.8,61l-.27-.22,1.76-4.67-.71-.27-1.76,4.68h-.34a2.08,2.08,0,0,0-2.06,1.39Z" transform="translate(-12.56 -15.69)"/><path class="cls-3" d="M114.58,64a2.63,2.63,0,1,0,3-3l-.84-5.07-1.71.29.84,5.06A2.64,2.64,0,0,0,114.58,64Z" transform="translate(-12.56 -15.69)"/><path d="M117.17,66.72a3.12,3.12,0,0,1-1.81-.58,3.16,3.16,0,0,1-1.26-2h0a3.12,3.12,0,0,1,1.28-3.06l-.87-5.22,2.67-.44.87,5.22a3.11,3.11,0,0,1,1.66,4.8,3,3,0,0,1-2,1.26A3.15,3.15,0,0,1,117.17,66.72Zm-1.54-10.09.82,4.92-.3.17A2.14,2.14,0,0,0,115.06,64h0a2.12,2.12,0,0,0,.87,1.4,2.14,2.14,0,1,0,1.61-3.86l-.34-.06-.82-4.93Z" transform="translate(-12.56 -15.69)"/><path class="cls-3" d="M125.79,60.22a2.63,2.63,0,1,0,1.12-4.14l-3.26-4-1.33,1.1,3.26,4A2.62,2.62,0,0,0,125.79,60.22Z" transform="translate(-12.56 -15.69)"/><path d="M127.83,61.59a3.05,3.05,0,0,1-2.36-1.11h0a3,3,0,0,1-.39-3.25l-3.35-4.07,2-1.63,3.35,4.07a3,3,0,0,1,3.12,1,3.1,3.1,0,0,1,.68,2.23,3,3,0,0,1-1.1,2.06A3,3,0,0,1,127.83,61.59ZM126.11,60a2.22,2.22,0,1,0,1-3.49l-.28.1L123.6,52.7l-.7.57,3.19,3.87-.16.26a2.21,2.21,0,0,0,.18,2.56Z" transform="translate(-12.56 -15.69)"/><path class="cls-3" d="M133.6,51.31a2.63,2.63,0,1,0-1.1-4.14l-4.81-1.81L127.08,47l4.81,1.81A2.63,2.63,0,0,0,133.6,51.31Z" transform="translate(-12.56 -15.69)"/><path d="M134.52,52a3.17,3.17,0,0,1-1.09-.19h0a3.12,3.12,0,0,1-2-2.64l-5-1.86,1-2.53,5,1.86A3.11,3.11,0,1,1,134.52,52Zm-.75-1.1a2.15,2.15,0,0,0,2.76-1.26,2.15,2.15,0,0,0-3.66-2.13l-.22.27L128,46l-.27.71,4.67,1.75v.35a2.13,2.13,0,0,0,1.39,2.06Z" transform="translate(-12.56 -15.69)"/><path class="cls-3" d="M135.9,39.7a2.64,2.64,0,1,0-3-3.05l-5.07.85.29,1.7,5.06-.84A2.64,2.64,0,0,0,135.9,39.7Z" transform="translate(-12.56 -15.69)"/><path d="M135.47,40.22a3.14,3.14,0,0,1-2.55-1.33l-5.22.87-.45-2.66,5.23-.87a3.11,3.11,0,0,1,4.8-1.67,3.12,3.12,0,0,1-1.3,5.61h0A2.94,2.94,0,0,1,135.47,40.22Zm-2.05-2.39.17.3a2.15,2.15,0,0,0,4-1.38,2.2,2.2,0,0,0-.87-1.4,2.15,2.15,0,0,0-3.37,1.38l-.06.34-4.92.82.12.75Z" transform="translate(-12.56 -15.69)"/><path class="cls-3" d="M132.09,28.48A2.63,2.63,0,1,0,128,27.36l-4,3.26,1.1,1.34,4-3.26A2.64,2.64,0,0,0,132.09,28.48Z" transform="translate(-12.56 -15.69)"/><path d="M125,32.64l-1.72-2.08,4.09-3.37a3.12,3.12,0,1,1,5,1.67h0a3.15,3.15,0,0,1-3.29.42Zm-.35-1.95.48.59L129,28.1l.29.18a2.14,2.14,0,0,0,2.48-.17h0a2.15,2.15,0,0,0-2.73-3.32,2.17,2.17,0,0,0-.65,2.4l.12.32Z" transform="translate(-12.56 -15.69)"/><circle class="cls-4" cx="100.03" cy="25.32" r="16.83"/><path class="cls-5" d="M125.54,29.71s9.31,11.52,0,22.3c-9.67,11.17-23.49,2.86-21.45,3.08C99.68,57.44,135.51,56.72,125.54,29.71Z" transform="translate(-12.56 -15.69)"/><path d="M112.89,24.67h0A16.61,16.61,0,1,1,98.49,33a16.59,16.59,0,0,1,14.4-8.31m0-1a17.59,17.59,0,1,0,8.77,2.36,17.58,17.58,0,0,0-8.77-2.36Z" transform="translate(-12.56 -15.69)"/><path class="cls-6" d="M102.29,52.84a73.69,73.69,0,0,1,20.23,0S113.25,34.14,102.29,52.84Z" transform="translate(-12.56 -15.69)"/><path class="cls-7" d="M109,46.52c-1.22,1.26-1.64,2.91-2.33,4.95a3,3,0,0,0,3.47,0S109.31,48.36,109,46.52Z" transform="translate(-12.56 -15.69)"/><path d="M108.43,52.06a3.17,3.17,0,0,1-1.75-.56l0,0v0c.09-.27.18-.53.26-.79A10.43,10.43,0,0,1,109,46.49l.06-.06v.08c.27,1.82,1.13,4.91,1.14,4.94v0l0,0A3.18,3.18,0,0,1,108.43,52.06Zm-1.68-.61a2.93,2.93,0,0,0,3.37,0c-.09-.32-.85-3.1-1.12-4.84a10.46,10.46,0,0,0-2,4.08C106.92,50.93,106.84,51.19,106.75,51.45Z" transform="translate(-12.56 -15.69)"/><path class="cls-7" d="M110.64,50.85c-.41-1.29-.79-2.58-1.15-3.88a2.81,2.81,0,0,1-.16-1,.54.54,0,0,1,.2-.44.65.65,0,0,1,.27-.08c.94-.15,1.9-.23,2.86-.3" transform="translate(-12.56 -15.69)"/><path class="cls-7" d="M114.26,50.76A17.15,17.15,0,0,1,115.41,48a5.31,5.31,0,0,0,.67-2.07c-.11,0-3.26-.74-3-.74C113.54,45.2,114.53,49.15,114.26,50.76Z" transform="translate(-12.56 -15.69)"/><path class="cls-7" d="M112.49,47.14c.94,1.38.67,2.92,1.36,4.36-.22.08-2.93.25-2.88,0A27.63,27.63,0,0,1,112.49,47.14Z" transform="translate(-12.56 -15.69)"/><path d="M111.83,51.69a2.19,2.19,0,0,1-.88-.1.11.11,0,0,1,0-.08,28.09,28.09,0,0,1,1.52-4.39l0-.08,0,.07a6,6,0,0,1,.83,2.44,7.24,7.24,0,0,0,.54,1.93l0,.05,0,0A13.71,13.71,0,0,1,111.83,51.69Zm-.81-.17a11.76,11.76,0,0,0,2.76-.05,7.48,7.48,0,0,1-.52-1.9,6,6,0,0,0-.76-2.33A28.63,28.63,0,0,0,111,51.52Z" transform="translate(-12.56 -15.69)"/><path class="cls-7" d="M116.14,47c1.1,1.15,1.49,2.65,2.11,4.49a2.69,2.69,0,0,1-3.15,0S115.89,48.7,116.14,47Z" transform="translate(-12.56 -15.69)"/><path d="M116.68,52.06a3,3,0,0,1-1.6-.51l0,0v0s.78-2.84,1-4.5v-.07l.06.05a9.51,9.51,0,0,1,1.88,3.79l.24.72v0l0,0A2.9,2.9,0,0,1,116.68,52.06Zm-1.53-.56a2.68,2.68,0,0,0,3.06,0c-.08-.24-.16-.47-.23-.7a9.71,9.71,0,0,0-1.81-3.7C115.92,48.68,115.23,51.21,115.15,51.5Z" transform="translate(-12.56 -15.69)"/><path class="cls-7" d="M105.16,49.62a5.42,5.42,0,0,0-1.52,2.53,1.6,1.6,0,0,0,2-.17A22.94,22.94,0,0,1,105.16,49.62Z" transform="translate(-12.56 -15.69)"/><path d="M104.49,52.47a1.52,1.52,0,0,1-.86-.3h0v0a5.33,5.33,0,0,1,1.53-2.54l0,0v.06a23.08,23.08,0,0,0,.51,2.35v0h0A2.26,2.26,0,0,1,104.49,52.47Zm-.82-.33c.73.46,1.21.31,2-.17,0-.16-.32-1.2-.49-2.29A5.27,5.27,0,0,0,103.67,52.14Z" transform="translate(-12.56 -15.69)"/><path class="cls-7" d="M106.51,50.76c0-.11-.75-1-.83-1.27a1.66,1.66,0,0,1-.08-1.11,5.37,5.37,0,0,1,1-1.1s1.07-.77.94-.23C107.52,47.06,107,49.27,106.51,50.76Z" transform="translate(-12.56 -15.69)"/><path d="M106.54,50.77l-.07,0a3.47,3.47,0,0,0-.37-.57,3.82,3.82,0,0,1-.45-.68,1.55,1.55,0,0,1-.08-1.14,3.78,3.78,0,0,1,.72-.84l.27-.26s.73-.54.94-.42.08.11,0,.22-.58,2.3-1,3.71Zm.87-3.88a2.22,2.22,0,0,0-.8.42l-.27.26a3.45,3.45,0,0,0-.71.83,1.5,1.5,0,0,0,.08,1.08,3.86,3.86,0,0,0,.44.66,5.39,5.39,0,0,1,.35.51c.45-1.48,1-3.58,1-3.6s0-.13,0-.15Z" transform="translate(-12.56 -15.69)"/><path class="cls-7" d="M122,52.54a4.24,4.24,0,0,0-1.67-2.14.25.25,0,0,0-.17,0c-.12,0-.14.19-.14.32,0,.4,0,.81,0,1.21s0,.51.4.54S121.49,52.52,122,52.54Z" transform="translate(-12.56 -15.69)"/><path class="cls-7" d="M117,46.59s2.27,1.23,2.73,2.6c0,0,0,2.45-.42,2.52S117,46.59,117,46.59Z" transform="translate(-12.56 -15.69)"/><path class="cls-8" d="M105.92,31.8a5.8,5.8,0,0,0-1,3.32,5.87,5.87,0,0,0,11,2.8Z" transform="translate(-12.56 -15.69)"/><path class="cls-6" d="M110.77,41.6a6.49,6.49,0,0,1-6.49-6.48,6.39,6.39,0,0,1,1.13-3.66.62.62,0,0,1,.83-.18l10,6.12a.61.61,0,0,1,.22.82A6.48,6.48,0,0,1,110.77,41.6Zm-4.65-9a5.27,5.27,0,0,0,4.65,7.73,5.28,5.28,0,0,0,4.32-2.25Z" transform="translate(-12.56 -15.69)"/><path class="cls-6" d="M111,38.56A3.52,3.52,0,0,1,107.44,35a3.48,3.48,0,0,1,.61-2,.6.6,0,0,1,.82-.17l4.95,3a.61.61,0,0,1,.22.81A3.5,3.5,0,0,1,111,38.56Zm-2.15-4.28a2.17,2.17,0,0,0-.13.76,2.29,2.29,0,0,0,4,1.57Z" transform="translate(-12.56 -15.69)"/><path class="cls-7" d="M122.6,34.79a5.37,5.37,0,0,0-.55-.69l-4.13,3.84c1.26,1.86,3.32,2.66,4.61,1.79S123.85,36.65,122.6,34.79Z" transform="translate(-12.56 -15.69)"/><path class="cls-6" d="M121.31,40.7a5,5,0,0,1-3.9-2.41.62.62,0,0,1,.09-.8l4.13-3.84a.61.61,0,0,1,.86,0,5.22,5.22,0,0,1,.62.77c1.43,2.13,1.33,4.73-.24,5.79A2.79,2.79,0,0,1,121.31,40.7ZM118.74,38c1.05,1.25,2.55,1.81,3.44,1.2s.95-2.54-.09-4.09h0L122,35Z" transform="translate(-12.56 -15.69)"/><path class="cls-6" d="M108.55,33.41a3,3,0,0,0-.5,1.63,2.9,2.9,0,0,0,5.45,1.39Z" transform="translate(-12.56 -15.69)"/><path class="cls-6" d="M119,39.17A1.75,1.75,0,0,0,120,36l-2.07,1.92A5.14,5.14,0,0,0,119,39.17Z" transform="translate(-12.56 -15.69)"/><path class="cls-6" d="M119,39.79a.59.59,0,0,1-.38-.14,5.85,5.85,0,0,1-1.25-1.37.61.61,0,0,1,.09-.79l2.07-1.92a.62.62,0,0,1,.79,0,2.37,2.37,0,0,1-1.28,4.26Zm-.3-1.77a5.79,5.79,0,0,0,.48.51,1.15,1.15,0,0,0,.86-1.11,1.19,1.19,0,0,0-.13-.53Z" transform="translate(-12.56 -15.69)"/><circle class="cls-2" cx="109.45" cy="13.4" r="1.04"/><circle class="cls-9" cx="99.48" cy="12.56" r="1.04"/><ellipse class="cls-9" cx="86.18" cy="24.55" rx="0.35" ry="1.11"/><ellipse class="cls-9" cx="88.95" cy="19.28" rx="0.62" ry="1.39"/><ellipse class="cls-9" cx="91.65" cy="28.35" rx="0.42" ry="1.32"/><circle class="cls-9" cx="108.13" cy="26.35" r="0.69"/><ellipse class="cls-9" cx="102.73" cy="17.41" rx="0.69" ry="1.32"/><ellipse class="cls-9" cx="97.33" cy="38.33" rx="0.28" ry="0.76"/><ellipse class="cls-9" cx="108.76" cy="31.89" rx="0.35" ry="1.11"/><ellipse class="cls-9" cx="114.78" cy="24.34" rx="0.42" ry="0.9"/><circle class="cls-9" cx="87.36" cy="31.89" r="0.42"/><circle class="cls-2" cx="123.73" cy="21.3" r="0.62"/><circle class="cls-2" cx="123.04" cy="32.25" r="0.62"/><circle class="cls-2" cx="115.28" cy="43.61" r="0.62"/><circle class="cls-2" cx="104.62" cy="49.01" r="0.62"/><circle class="cls-2" cx="92.01" cy="47.9" r="0.62"/><circle class="cls-2" cx="82.04" cy="40.01" r="0.62"/><circle class="cls-2" cx="77.05" cy="30.17" r="0.62"/><circle class="cls-2" cx="78.3" cy="16.87" r="0.62"/><circle class="cls-2" cx="84.53" cy="8.14" r="0.62"/><circle class="cls-2" cx="119.02" cy="10.08" r="0.62"/><circle class="cls-2" cx="107.25" cy="3.02" r="0.62"/></svg>