<svg width="64" height="64" viewBox="0 0 64 64" fill="none" xmlns="http://www.w3.org/2000/svg">
<circle cx="32" cy="32" r="32" fill="white"/>
<path d="M31.1893 10.3039C33.2306 10.3039 34.8597 10.5007 36.0766 10.8942C37.2935 11.2878 38.53 11.8585 39.7862 12.6063C40.218 12.8425 40.5909 13.0392 40.9049 13.1967C41.2582 13.3541 41.5526 13.4328 41.7882 13.4328C42.1415 13.4328 42.4163 13.236 42.6125 12.8425C42.8088 12.4095 42.9658 11.7404 43.0836 10.8352H44.4379C44.2416 13.4722 44.1435 17.959 44.1435 24.2957H42.7892C42.6322 22.1703 42.1415 20.1434 41.3171 18.2148C40.532 16.2863 39.3936 14.7316 37.9019 13.5509C36.4495 12.3308 34.7419 11.7208 32.7791 11.7208C30.8556 11.7208 29.2854 12.2718 28.0685 13.3738C26.8909 14.4365 26.3021 15.8927 26.3021 17.7425C26.3021 19.1201 26.5965 20.3205 27.1853 21.3438C27.7741 22.3671 28.5985 23.3117 29.6584 24.1776C30.7182 25.0041 32.3473 26.1455 34.5456 27.6017L36.4299 28.9006C38.7459 30.4355 40.5713 31.7737 41.9059 32.9151C43.2406 34.0565 44.3201 35.3946 45.1445 36.9296C46.0081 38.4252 46.4399 40.1767 46.4399 42.1839C46.4399 44.7028 45.7922 46.8282 44.4968 48.5599C43.2014 50.2523 41.4349 51.5315 39.1973 52.3973C36.9991 53.2632 34.5456 53.6962 31.837 53.6962C29.6387 53.6962 27.8134 53.4994 26.3609 53.1058C24.9085 52.7122 23.5738 52.1809 22.3569 51.5118C21.4933 50.9608 20.826 50.6853 20.3549 50.6853C20.0016 50.6853 19.7268 50.9017 19.5306 51.3347C19.3343 51.7283 19.1773 52.3777 19.0595 53.2829H17.7052C17.8622 50.8033 17.9407 45.49 17.9407 37.3429H19.295C19.5698 41.751 20.5512 45.3326 22.2392 48.0876C23.9271 50.8033 26.518 52.1612 30.0117 52.1612C32.1314 52.1612 33.8783 51.5905 35.2522 50.4491C36.6261 49.3077 37.3131 47.6744 37.3131 45.549C37.3131 43.345 36.6065 41.4558 35.1933 39.8815C33.7801 38.3071 31.5426 36.536 28.4807 34.5681C26.1254 33.0332 24.2412 31.695 22.828 30.5536C21.4148 29.4122 20.2568 28.074 19.3539 26.5391C18.451 24.9648 17.9996 23.1543 17.9996 21.1077C17.9996 18.7462 18.5884 16.7586 19.7661 15.1449C20.983 13.4919 22.5925 12.2718 24.5945 11.4846C26.5965 10.6974 28.7948 10.3039 31.1893 10.3039Z" fill="#41228E"/>
</svg>
